<?xml version="1.0" encoding="UTF-8" standalone="no"?>
<!-- Created with Inkscape (http://www.inkscape.org/) -->

<svg
   xmlns:dc="http://purl.org/dc/elements/1.1/"
   xmlns:cc="http://creativecommons.org/ns#"
   xmlns:rdf="http://www.w3.org/1999/02/22-rdf-syntax-ns#"
   xmlns:svg="http://www.w3.org/2000/svg"
   xmlns="http://www.w3.org/2000/svg"
   xmlns:sodipodi="http://sodipodi.sourceforge.net/DTD/sodipodi-0.dtd"
   xmlns:inkscape="http://www.inkscape.org/namespaces/inkscape"
   width="90"
   height="90"
   id="svg2"
   version="1.1"
   inkscape:version="0.48.5 r10040"
   sodipodi:docname="jlogo.svg"
   inkscape:export-filename="/Users/ahagen/Desktop/jlogoideas.png"
   inkscape:export-xdpi="300"
   inkscape:export-ydpi="300">
  <defs
     id="defs4" />
  <sodipodi:namedview
     id="base"
     pagecolor="#ffffff"
     bordercolor="#666666"
     borderopacity="1.0"
     inkscape:pageopacity="0.0"
     inkscape:pageshadow="2"
     inkscape:zoom="4.9"
     inkscape:cx="45"
     inkscape:cy="45"
     inkscape:document-units="px"
     inkscape:current-layer="layer1"
     showgrid="false"
     units="in"
     inkscape:window-width="1616"
     inkscape:window-height="1088"
     inkscape:window-x="0"
     inkscape:window-y="0"
     inkscape:window-maximized="0" />
  <metadata
     id="metadata7">
    <rdf:RDF>
      <cc:Work
         rdf:about="">
        <dc:format>image/svg+xml</dc:format>
        <dc:type
           rdf:resource="http://purl.org/dc/dcmitype/StillImage" />
        <dc:title></dc:title>
      </cc:Work>
    </rdf:RDF>
  </metadata>
  <g
     inkscape:label="Layer 1"
     inkscape:groupmode="layer"
     id="layer1"
     transform="translate(0,-3067.0842)">
    <path
       id="path3768"
       d="m 49.084985,3097.525 c 0.18734,-0.2247 0.299752,-0.3746 0.337224,-0.4496 0.03744,-0.1124 0.07493,-0.2435 0.112412,-0.3934 0.299746,-0.1499 0.580762,-0.2623 0.843058,-0.3372 0.299746,-0.075 0.580767,-0.2061 0.843058,-0.3935 0.562031,-0.3746 0.955458,-0.6182 1.180288,-0.7306 0.262273,-0.1499 0.505822,-0.2623 0.730652,-0.3372 0.262273,0.1499 0.468349,0.2623 0.61824,0.3372 0.149867,0.075 0.299745,0.1499 0.44963,0.2248 0.07493,0.2248 0.168603,0.4497 0.281021,0.6744 0.149867,0.2249 0.131131,0.5059 -0.05618,0.8431 -0.412176,0.2623 -0.636988,0.4871 -0.674449,0.6745 -1.2e-5,0.1873 0.01875,0.3372 0.05619,0.4496 -0.112418,0.1874 -0.224824,0.3747 -0.337225,0.562 -0.112418,0.1874 -0.224824,0.3747 -0.337218,0.5621 -0.374709,0.1873 -0.618257,0.3934 -0.730652,0.6182 -0.112424,0.2248 -0.262297,0.4309 -0.449636,0.6183 -0.262297,0.075 -0.487109,0.1311 -0.674449,0.1686 -0.187351,0.037 -0.430906,0.075 -0.730646,0.1124 -0.67446,-0.1124 -1.142827,-0.4684 -1.4051,-1.0679 -0.149885,-0.4871 -0.168621,-1.199 -0.05618,-2.1358 m -3.93428,20.7393 c 0.262279,-0.1124 0.5433,-0.2248 0.843058,-0.3372 0.299751,-0.1499 0.580773,-0.2998 0.843058,-0.4496 0.599503,-0.2998 1.049139,-0.5621 1.348897,-0.7869 0.337218,-0.2248 0.655706,-0.4496 0.95547,-0.6744 0.299745,-0.2249 0.599497,-0.4497 0.899261,-0.6745 0.337218,-0.2248 0.730645,-0.4496 1.180288,-0.6744 0.112394,-0.1499 0.243536,-0.2623 0.393421,-0.3373 0.18734,-0.1124 0.355949,-0.2622 0.505839,-0.4496 0.37468,-0.2997 0.636965,-0.5246 0.786855,-0.6744 0.187334,-0.1499 0.337213,-0.2811 0.449631,-0.3935 0.149867,-0.1124 0.318476,-0.2435 0.505839,-0.3934 0.187334,-0.1499 0.487086,-0.3559 0.899261,-0.6182 0.524558,-0.5995 1.124067,-1.1241 1.798528,-1.5738 0.674431,-0.487 1.27394,-1.0116 1.798527,-1.5737 0.337207,-0.075 0.562019,0.056 0.674449,0.3935 0.149861,0.2997 0.168592,0.562 0.05619,0.7868 -0.07496,0.1874 -0.2061,0.3373 -0.393428,0.4497 -0.149896,0.075 -0.299775,0.206 -0.44963,0.3934 0.187328,0.5246 0.131125,0.918 -0.168615,1.1803 -0.262303,0.2623 -0.543318,0.5245 -0.843058,0.7868 -0.22483,0.2998 -0.430912,0.4871 -0.618246,0.5621 -0.449648,0.6369 -0.992948,1.1615 -1.629912,1.5737 -0.599527,0.3747 -1.217767,0.7868 -1.854731,1.2365 -0.412176,0.2997 -0.693197,0.5245 -0.843064,0.6744 -0.149885,0.1124 -0.281027,0.2061 -0.393427,0.281 -0.07495,0.038 -0.206094,0.1124 -0.393428,0.2248 -0.187357,0.075 -0.543312,0.2436 -1.067876,0.5059 -0.562048,0.4121 -1.142821,0.8056 -1.742318,1.1803 -0.562049,0.3372 -1.161558,0.6369 -1.798528,0.8992 -0.487109,0.2998 -0.974212,0.6183 -1.461303,0.9555 -0.449637,0.3372 -0.918004,0.7119 -1.405101,1.1241 -0.112412,0.1124 -0.262291,0.2248 -0.449636,0.3372 -0.149879,0.1499 -0.262285,0.281 -0.337219,0.3934 -0.26229,0.3747 -0.449636,0.7681 -0.562042,1.1803 -0.112412,0.4496 -0.299758,0.8618 -0.562043,1.2365 -0.149872,0.5246 -0.299751,1.0117 -0.44963,1.4613 -0.149879,0.4496 -0.299752,0.9367 -0.44963,1.4613 -0.07494,0.4122 -0.149879,0.8056 -0.224819,1.1803 -0.07493,0.3747 -0.187345,0.7681 -0.337224,1.1803 -0.187345,0.2997 -0.299752,0.4871 -0.337224,0.562 -0.0375,0.1124 -0.09367,0.2623 -0.168609,0.4496 -0.299752,0.4871 -0.449631,0.8056 -0.449631,0.9555 -0.0375,0.1873 -0.09368,0.3747 -0.168615,0.562 -0.07493,0.2623 -0.168609,0.5059 -0.281015,0.7307 -0.112406,0.2623 -0.206082,0.5433 -0.281022,0.8431 -0.07494,0.2622 -0.131142,0.487 -0.168615,0.6744 -0.07493,0.2248 -0.224812,0.3747 -0.44963,0.4497 -0.07493,0.1873 -0.149873,0.3559 -0.224818,0.5058 -0.07493,0.1873 -0.168604,0.3747 -0.281016,0.562 -0.187345,0.1873 -0.374691,0.3747 -0.562042,0.5621 -0.224812,0.2248 -0.355955,0.4496 -0.393428,0.6744 -0.112406,0.4871 -0.337218,0.843 -0.674448,1.0679 -0.337219,0.2623 -0.5433,0.5808 -0.618246,0.9554 -0.599497,0.637 -1.180276,1.2927 -1.742318,1.9672 -0.562037,0.6744 -1.217749,1.274 -1.967143,1.7986 -0.112395,0.2622 -0.262273,0.4683 -0.449631,0.6182 -0.224806,0.1498 -0.393415,0.3746 -0.505833,0.6744 -0.18734,0.1124 -0.337219,0.1686 -0.449637,0.1687 -0.149867,0.037 -0.318476,0.075 -0.505833,0.1123 -0.674437,0.1125 -1.105331,0.037 -1.292694,-0.2248 -0.224801,-0.2248 -0.468349,-0.4309 -0.730652,-0.6182 -0.29974,-0.8993 -0.562025,-1.8735 -0.786855,-2.9226 -0.2248,-1.0117 -0.355943,-2.0421 -0.393427,-3.0913 -0.07492,-0.1874 -0.09366,-0.3747 -0.05619,-0.562 0.0375,-0.1874 0.0375,-0.3934 0,-0.6182 -0.03744,-0.15 -0.07492,-0.2998 -0.112406,-0.4497 -0.03744,-0.1124 -0.01875,-0.2248 0.05619,-0.3372 -0.112395,-0.4496 -0.05619,-0.993 0.168609,-1.6299 0.22483,-0.637 0.449648,-1.1616 0.674449,-1.5737 0.112423,-0.4122 0.243566,-0.8431 0.393427,-1.2927 0.14989,-0.4122 0.393439,-0.7119 0.730652,-0.8993 0.412175,-0.7494 0.880542,-1.4238 1.4051,-2.0233 0.524582,-0.5621 1.086618,-1.1054 1.686122,-1.6299 0.711921,-0.6745 1.348903,-1.3115 1.910933,-1.911 0.562049,-0.562 1.236491,-1.0117 2.02334,-1.3489 0.487109,-0.4121 1.011679,-0.7868 1.573716,-1.1241 0.524576,-0.2997 1.030409,-0.6557 1.517506,-1.0678 0.07494,-0.5246 0.224818,-1.0117 0.449631,-1.4613 0.224818,-0.4497 0.412163,-0.8806 0.562042,-1.2927 0.299758,-0.7869 0.655712,-1.6487 1.067876,-2.5854 0.262285,-0.4871 0.468367,-0.8805 0.61824,-1.1803 0.149879,-0.2997 0.318494,-0.5995 0.505839,-0.8993 0.07494,-0.4121 0.243549,-0.8055 0.505834,-1.1802 0.299757,-0.3747 0.543306,-0.7682 0.730651,-1.1803 0.337225,-0.7494 0.618246,-1.5175 0.843064,-2.3044 0.224813,-0.7868 0.524564,-1.5737 0.899261,-2.3606 0.0375,-0.2248 0.112406,-0.4308 0.224818,-0.6182 0.149873,-0.1873 0.262279,-0.4309 0.337225,-0.7307 0.07493,-0.1498 0.1124,-0.281 0.112406,-0.3934 -6e-6,-0.1498 0.0375,-0.2997 0.112406,-0.4496 0.262285,-0.3747 0.430894,-0.6557 0.505839,-0.8431 0.112401,-0.1873 0.243543,-0.3184 0.393428,-0.3934 0.187339,0.075 0.355949,0.1499 0.505833,0.2248 0.149873,0.037 0.318482,0.075 0.50584,0.1124 0.07493,0.3373 0.299745,0.5433 0.674442,0.6183 0.412158,0.075 0.805586,0.1311 1.180288,0.1686 0.187334,0.1499 0.355949,0.281 0.505834,0.3934 0.18734,0.075 0.337212,0.2061 0.44963,0.3934 0.03744,0.2249 0.01875,0.4684 -0.05618,0.7307 -0.0375,0.2248 -0.09368,0.4122 -0.168609,0.562 -0.07495,0.2249 -0.187358,0.4309 -0.337225,0.6183 -0.149884,0.1499 -0.299763,0.3185 -0.44963,0.5058 -0.112418,0.1874 -0.224824,0.4122 -0.337224,0.6745 -0.112418,0.2248 -0.224824,0.4309 -0.337225,0.6182 -0.187357,0.3747 -0.374703,0.7494 -0.562042,1.1241 -0.149885,0.3747 -0.299758,0.7681 -0.449631,1.1803 -0.07494,0.1499 -0.149884,0.2997 -0.224818,0.4496 -0.0375,0.1124 -0.09368,0.2436 -0.168609,0.3934 -0.07494,0.1499 -0.131148,0.2998 -0.168609,0.4497 -6e-6,0.1124 -0.0375,0.2435 -0.112412,0.3934 -0.149885,0.3747 -0.281027,0.6744 -0.393428,0.8992 -0.07494,0.1874 -0.206087,0.4684 -0.393427,0.8431 -0.149885,0.2998 -0.262291,0.5995 -0.337224,0.8993 -0.0375,0.2623 -0.112412,0.5245 -0.224819,0.7868 -0.112412,0.1874 -0.224818,0.3747 -0.337218,0.5621 -0.112412,0.1498 -0.187351,0.3747 -0.224818,0.6744 m -9.27366,8.262 c -0.262279,0.1499 -0.487091,0.3185 -0.674448,0.5058 -0.224807,0.1874 -0.468356,0.356 -0.730652,0.5059 -0.374685,0.5995 -0.824316,1.1428 -1.348892,1.6299 -0.524564,0.4871 -0.99293,1.0116 -1.4051,1.5737 -0.07493,0.1124 -0.149867,0.2248 -0.224818,0.3372 -0.112394,0.1124 -0.20607,0.2061 -0.281021,0.281 -0.112395,0.2623 -0.168598,0.5246 -0.168609,0.7869 -0.03744,0.2997 -0.09366,0.562 -0.168616,0.7869 -0.03744,0.1873 -0.112394,0.3559 -0.224812,0.5058 -0.1124,0.1499 -0.224806,0.3185 -0.337224,0.5058 -0.299746,0.6745 -0.449619,1.3864 -0.449631,2.1358 -0.03744,0.7493 -0.149867,1.5175 -0.337224,2.3044 -0.1124,0.4121 -0.1124,0.6744 0,0.7868 0.07495,0.1499 0.168621,0.2248 0.281021,0.2248 0.07495,0 0.206088,-0.094 0.393428,-0.281 0.149884,-0.1499 0.262296,-0.2623 0.337224,-0.3372 0.149885,-0.1125 0.281027,-0.2436 0.393427,-0.3934 0.112418,-0.1125 0.206088,-0.2062 0.281016,-0.2811 0.337236,-0.4497 0.67446,-0.8805 1.011673,-1.2927 0.337236,-0.4121 0.636987,-0.8243 0.899266,-1.2365 0.112412,-0.075 0.224824,-0.2061 0.337225,-0.3934 0.07494,-0.1499 0.149884,-0.3372 0.224812,-0.562 0.07494,-0.1874 0.149885,-0.3747 0.224818,-0.5621 0.07494,-0.1873 0.149885,-0.3372 0.224818,-0.4496 0.149879,-0.1874 0.299758,-0.4684 0.449631,-0.8431 0.112412,-0.3747 0.206088,-0.6557 0.281021,-0.843 0.374697,-0.7494 0.711921,-1.4051 1.011667,-1.9672 0.299764,-0.562 0.580779,-1.2364 0.843064,-2.0233 0.112412,-0.2998 0.243554,-0.637 0.393427,-1.0117 0.112412,-0.3747 0.187352,-0.7494 0.224813,-1.124 0.07494,-0.075 0.149884,-0.2061 0.224818,-0.3935 0.0375,-0.1499 0.09367,-0.3185 0.168609,-0.5058 -0.374685,0.2997 -0.71191,0.562 -1.011667,0.7868 -0.337219,0.2249 -0.61824,0.5059 -0.843064,0.8431"
       inkscape:connector-curvature="0"
       style="font-size:98.23390961px;font-style:normal;font-variant:normal;font-weight:normal;font-stretch:normal;text-align:start;line-height:125%;letter-spacing:0px;word-spacing:0px;writing-mode:lr-tb;text-anchor:start;fill:#000000;fill-opacity:1;stroke:none;font-family:Seaweed Script;-inkscape-font-specification:Seaweed Script" />
    <path
       style="font-size:medium;font-style:normal;font-variant:normal;font-weight:normal;font-stretch:normal;text-indent:0;text-align:start;text-decoration:none;line-height:normal;letter-spacing:normal;word-spacing:normal;text-transform:none;direction:ltr;block-progression:tb;writing-mode:lr-tb;text-anchor:start;baseline-shift:baseline;color:#000000;fill:#000000;fill-opacity:1;stroke:none;stroke-width:1.39590192;marker:none;visibility:visible;display:inline;overflow:visible;enable-background:accumulate;font-family:Sans;-inkscape-font-specification:Sans"
       d="m 45.000001,3086.6523 c -14.042951,0 -25.431887,11.389 -25.431887,25.4319 0,14.043 11.388936,25.4319 25.431887,25.4319 14.042951,0 25.431885,-11.3889 25.431885,-25.4319 0,-14.0429 -11.388935,-25.4319 -25.431886,-25.4319 z m 0,0.5903 c 13.72632,0 24.841666,11.1153 24.841666,24.8416 0,13.7264 -11.115346,24.8548 -24.841666,24.8548 -13.726321,0 -24.854784,-11.1284 -24.854784,-24.8548 0,-13.7263 11.128463,-24.8416 24.854784,-24.8416 z"
       id="path3770"
       inkscape:connector-curvature="0" />
    <path
       sodipodi:type="arc"
       style="fill:none;stroke:#000000;stroke-width:1.04325795;stroke-linecap:butt;stroke-linejoin:miter;stroke-miterlimit:4;stroke-opacity:1;stroke-dasharray:none;stroke-dashoffset:0"
       id="path3774"
       sodipodi:cx="347.92587"
       sodipodi:cy="18.428949"
       sodipodi:rx="59.576347"
       sodipodi:ry="59.576347"
       d="m 407.50222,18.428949 a 59.576347,59.576347 0 1 1 -119.15269,0 59.576347,59.576347 0 1 1 119.15269,0 z"
       transform="matrix(0.56158297,0,0,0.56158297,-150.38925,3101.7349)" />
    <path
       style="fill:none;stroke:#000000;stroke-width:0.04084254;stroke-linecap:butt;stroke-linejoin:miter;stroke-miterlimit:4;stroke-opacity:1;stroke-dasharray:none;stroke-dashoffset:0"
       d="m 30.383862,3084.948 c -14.986905,8.0723 -20.5923256,26.7655 -12.520057,41.7524 8.072268,14.9869 26.765395,20.5923 41.752311,12.52 14.986928,-8.0723 20.592384,-26.7654 12.520104,-41.7523 -8.072275,-14.9869 -26.765436,-20.5923 -41.752358,-12.5201 z"
       id="path3776"
       inkscape:connector-curvature="0" />
    <path
       d="m 49.58087,3140.4618 c -0.158151,0.025 -0.297273,0.083 -0.417378,0.1731 -0.120098,0.09 -0.215614,0.1985 -0.286534,0.3244 -0.06706,0.1254 -0.106289,0.2642 -0.117685,0.4162 -0.01137,0.1521 0.01418,0.3004 0.07667,0.4447 0.270885,-0.1618 0.538221,-0.321 0.802011,-0.4776 0.267025,-0.1612 0.535983,-0.3226 0.806874,-0.4844 -0.09784,-0.1426 -0.223863,-0.2511 -0.378065,-0.3254 -0.150354,-0.075 -0.312319,-0.099 -0.485897,-0.071 m 1.086068,0.4501 c -0.292194,0.177 -0.584692,0.352 -0.877496,0.5252 -0.292803,0.1731 -0.585301,0.3482 -0.877489,0.5252 0.100905,0.1619 0.237098,0.2846 0.408578,0.368 0.17472,0.079 0.364297,0.1023 0.568739,0.07 0.131142,-0.021 0.248968,-0.063 0.353464,-0.1275 0.104497,-0.064 0.194664,-0.1437 0.270494,-0.2388 0.01851,0.017 0.03703,0.033 0.05548,0.05 0.01851,0.017 0.0389,0.033 0.06128,0.05 -0.08495,0.1124 -0.188705,0.206 -0.311259,0.2809 -0.118698,0.074 -0.253268,0.1234 -0.403703,0.1473 -0.158152,0.025 -0.311259,0.02 -0.459327,-0.016 -0.144829,-0.041 -0.275362,-0.1026 -0.391611,-0.1869 -0.11625,-0.084 -0.215972,-0.1891 -0.299166,-0.3143 -0.07995,-0.1297 -0.132513,-0.2735 -0.157677,-0.4317 -0.02455,-0.1543 -0.01892,-0.3055 0.01682,-0.4536 0.03961,-0.1487 0.101602,-0.2811 0.185933,-0.3974 0.08434,-0.1162 0.189402,-0.214 0.315202,-0.2933 0.129045,-0.084 0.272643,-0.1383 0.430794,-0.1635 0.231439,-0.037 0.445301,0 0.641587,0.1174 0.200147,0.1145 0.356588,0.2775 0.469333,0.489"
       style="font-size:10px;font-style:normal;font-variant:normal;font-weight:300;font-stretch:normal;text-align:center;line-height:125%;letter-spacing:0px;word-spacing:0px;writing-mode:lr-tb;text-anchor:middle;fill:#000000;fill-opacity:1;stroke:none;font-family:Josefin Slab;-inkscape-font-specification:Josefin Slab Light"
       id="path3280"
       inkscape:connector-curvature="0" />
    <path
       d="m 51.428711,3141.659 0.07352,0.3138 c 0.09322,0.038 0.187252,0.055 0.282087,0.048 0.09863,-0.01 0.191681,-0.021 0.279153,-0.042 0.04564,-0.011 0.09474,-0.032 0.14733,-0.065 0.05261,-0.032 0.09914,-0.073 0.139667,-0.1231 0.04435,-0.05 0.07692,-0.1082 0.09778,-0.1733 0.02086,-0.065 0.02191,-0.1375 0.0029,-0.2174 -0.02496,-0.1064 -0.07073,-0.182 -0.137335,-0.2265 -0.0675,-0.049 -0.145186,-0.08 -0.233067,-0.096 -0.08877,-0.019 -0.183362,-0.029 -0.283781,-0.03 -0.10131,-0.01 -0.198249,-0.016 -0.290823,-0.034 -0.08877,-0.019 -0.169254,-0.054 -0.241445,-0.1058 -0.06928,-0.056 -0.118177,-0.1449 -0.146692,-0.2665 -0.02226,-0.095 -0.02478,-0.1828 -0.0075,-0.263 0.02109,-0.081 0.05437,-0.1532 0.09983,-0.216 0.04546,-0.063 0.09974,-0.1137 0.162844,-0.1525 0.06602,-0.043 0.133252,-0.073 0.2017,-0.089 0.01142,0 0.04037,-0.01 0.0869,-0.014 0.04564,-0.01 0.0983,-0.017 0.158022,-0.019 0.06352,0 0.128817,0 0.195906,0.014 0.06619,0.01 0.125547,0.031 0.178071,0.067 l 0.09357,0.3992 -0.148309,0.035 -0.07486,-0.3194 c -0.03668,-0.019 -0.07959,-0.032 -0.128787,-0.036 -0.04541,-0.01 -0.09136,-0.01 -0.13788,0 -0.04359,0 -0.08253,0.01 -0.11676,0.015 -0.03509,0.01 -0.05835,0.01 -0.06979,0.01 -0.04564,0.011 -0.09329,0.03 -0.14296,0.057 -0.04587,0.027 -0.08806,0.061 -0.126566,0.1018 -0.03468,0.04 -0.05913,0.09 -0.07327,0.1496 -0.01412,0.059 -0.01277,0.1253 0.0041,0.1976 0.02314,0.099 0.06761,0.1686 0.133328,0.2094 0.06571,0.041 0.142508,0.069 0.23039,0.084 0.09168,0.015 0.188177,0.024 0.289487,0.028 0.101309,0.01 0.197241,0.02 0.287794,0.047 0.09346,0.022 0.175276,0.063 0.245452,0.123 0.06928,0.056 0.118623,0.1467 0.148028,0.2722 0.01605,0.068 0.01968,0.1438 0.01084,0.2262 -0.0059,0.077 -0.02976,0.1553 -0.07167,0.2334 -0.03896,0.073 -0.0973,0.1411 -0.174966,0.2034 -0.07475,0.057 -0.171069,0.1003 -0.288954,0.1279 -0.03041,0.01 -0.0746,0.015 -0.132536,0.025 -0.05414,0.01 -0.115301,0.013 -0.183514,0.013 -0.06441,0 -0.131611,-0.01 -0.201606,-0.013 -0.07089,-0.012 -0.134494,-0.035 -0.19082,-0.07 l -0.09357,-0.3993 0.148309,-0.035"
       style="font-size:10px;font-style:normal;font-variant:normal;font-weight:300;font-stretch:normal;text-align:center;line-height:125%;letter-spacing:0px;word-spacing:0px;writing-mode:lr-tb;text-anchor:middle;fill:#000000;fill-opacity:1;stroke:none;font-family:Josefin Slab;-inkscape-font-specification:Josefin Slab Light"
       id="path3282"
       inkscape:connector-curvature="0" />
    <path
       d="m 52.577532,3138.2101 0.157196,-0.047 0.40876,1.3698 0.679311,-0.2027 0.04523,0.1516 -0.679311,0.2027 0.537746,1.8021 0.471589,-0.1407 0.04523,0.1516 -0.628786,0.1876 -0.582976,-1.9537 -0.494045,0.1474 -0.04523,-0.1515 0.494046,-0.1474 -0.40876,-1.3699"
       style="font-size:10px;font-style:normal;font-variant:normal;font-weight:300;font-stretch:normal;text-align:center;line-height:125%;letter-spacing:0px;word-spacing:0px;writing-mode:lr-tb;text-anchor:middle;fill:#000000;fill-opacity:1;stroke:none;font-family:Josefin Slab;-inkscape-font-specification:Josefin Slab Light"
       id="path3284"
       inkscape:connector-curvature="0" />
    <path
       d="m 56.745992,3140.2957 -0.116572,-0.3004 c -0.0018,0.093 -0.01752,0.1869 -0.04751,0.2824 -0.03,0.095 -0.07628,0.1867 -0.138835,0.2738 -0.05892,0.086 -0.131172,0.1641 -0.216768,0.2349 -0.08701,0.067 -0.186959,0.1229 -0.299834,0.1667 -0.149293,0.058 -0.30008,0.085 -0.452361,0.081 -0.150054,-0.01 -0.29261,-0.042 -0.42766,-0.098 -0.131412,-0.058 -0.249155,-0.1401 -0.35323,-0.2463 -0.105487,-0.1099 -0.187199,-0.2395 -0.245131,-0.3888 -0.05654,-0.1456 -0.08291,-0.2946 -0.07915,-0.4469 0.0035,-0.1522 0.03457,-0.2941 0.09253,-0.4255 0.06157,-0.1329 0.14549,-0.2513 0.251739,-0.3554 0.108481,-0.1091 0.237362,-0.1926 0.38666,-0.2506 0.109237,-0.042 0.21937,-0.066 0.330405,-0.072 0.109618,-0.01 0.215075,0 0.316385,0.022 0.104942,0.022 0.200674,0.059 0.287196,0.1085 0.09016,0.049 0.167168,0.1069 0.231029,0.1743 -0.04037,-0.093 -0.08005,-0.1847 -0.119021,-0.2743 -0.03533,-0.091 -0.07135,-0.1839 -0.108094,-0.2786 l -0.735468,-1.8953 -0.393257,0.1526 -0.05724,-0.1474 0.540734,-0.2099 1.532399,3.949 0.404184,-0.1568 0.05724,0.1474 -0.540734,0.2099 -0.09962,-0.2567 m -2.144986,-0.054 c 0.04945,0.1274 0.119753,0.2384 0.210892,0.3329 0.08973,0.091 0.190896,0.1626 0.303507,0.2153 0.114832,0.047 0.236056,0.074 0.363665,0.079 0.131248,0.01 0.260592,-0.019 0.388038,-0.069 0.127445,-0.049 0.238422,-0.1197 0.332935,-0.2109 0.09451,-0.091 0.1681,-0.193 0.220764,-0.3056 0.05126,-0.1162 0.07934,-0.2381 0.0843,-0.3657 0.0035,-0.1313 -0.01945,-0.2606 -0.06888,-0.3881 -0.04945,-0.1275 -0.11905,-0.2366 -0.208777,-0.3275 -0.09114,-0.095 -0.194833,-0.1674 -0.311083,-0.2186 -0.116249,-0.051 -0.239998,-0.079 -0.371246,-0.082 -0.131248,-0.01 -0.260597,0.019 -0.388043,0.069 -0.127446,0.049 -0.238422,0.1197 -0.33293,0.2109 -0.09087,0.09 -0.16193,0.1927 -0.213183,0.3089 -0.04763,0.1149 -0.07318,0.2379 -0.07671,0.3692 -0.0047,0.1276 0.01728,0.2551 0.06676,0.3826"
       style="font-size:10px;font-style:normal;font-variant:normal;font-weight:300;font-stretch:normal;text-align:center;line-height:125%;letter-spacing:0px;word-spacing:0px;writing-mode:lr-tb;text-anchor:middle;fill:#000000;fill-opacity:1;stroke:none;font-family:Josefin Slab;-inkscape-font-specification:Josefin Slab Light"
       id="path3286"
       inkscape:connector-curvature="0" />
    <path
       d="m 57.81378,3139.9504 c -0.01816,-0.039 -0.01969,-0.079 -0.0047,-0.1207 0.01512,-0.042 0.04218,-0.071 0.0811,-0.089 0.03896,-0.018 0.07741,-0.019 0.115388,0 0.04154,0.015 0.07135,0.042 0.08951,0.081 0.01816,0.039 0.01968,0.079 0.0047,0.1207 -0.01324,0.036 -0.03931,0.064 -0.07826,0.082 -0.03896,0.018 -0.07835,0.022 -0.118223,0.01 -0.04154,-0.015 -0.07135,-0.042 -0.0895,-0.081"
       style="font-size:10px;font-style:normal;font-variant:normal;font-weight:300;font-stretch:normal;text-align:center;line-height:125%;letter-spacing:0px;word-spacing:0px;writing-mode:lr-tb;text-anchor:middle;fill:#000000;fill-opacity:1;stroke:none;font-family:Josefin Slab;-inkscape-font-specification:Josefin Slab Light"
       id="path3288"
       inkscape:connector-curvature="0" />
    <path
       d="m 60.529708,3138.5359 1.539148,-0.9531 -0.33621,-0.543 0.134493,-0.083 0.419487,0.6775 -2.017329,1.2492 c 0.08503,-0.3375 0.165481,-0.6676 0.241346,-0.9902 0.07586,-0.3226 0.131564,-0.6259 0.167104,-0.9097 0.03884,-0.286 0.05027,-0.5457 0.03427,-0.7793 -0.01599,-0.2336 -0.07233,-0.4284 -0.168978,-0.5845 -0.106928,-0.1726 -0.221285,-0.3017 -0.343065,-0.387 -0.121781,-0.085 -0.242453,-0.1393 -0.362013,-0.1618 -0.119554,-0.022 -0.233419,-0.021 -0.341583,0 -0.104849,0.024 -0.197118,0.06 -0.276815,0.1094 -0.156071,0.097 -0.268103,0.2051 -0.336088,0.3252 -0.06466,0.1182 -0.101175,0.2373 -0.109541,0.3573 -0.0071,0.1147 0.0076,0.2273 0.04394,0.3381 0.03972,0.1086 0.08424,0.2027 0.133591,0.2825 0.141888,0.2291 0.323456,0.3739 0.544707,0.4345 l -0.04031,0.1352 c -0.123672,-0.029 -0.24165,-0.082 -0.353945,-0.1598 -0.111029,-0.083 -0.207669,-0.1907 -0.289921,-0.3236 -0.08225,-0.1328 -0.139438,-0.2697 -0.171562,-0.4106 -0.03211,-0.1409 -0.03673,-0.2781 -0.01383,-0.4118 0.02625,-0.1357 0.08038,-0.2634 0.16244,-0.3831 0.08206,-0.1197 0.197803,-0.2258 0.347237,-0.3184 0.132829,-0.082 0.269456,-0.1324 0.409884,-0.1504 0.143751,-0.02 0.28323,-0.01 0.41845,0.03 0.133164,0.037 0.258342,0.1018 0.375541,0.1947 0.117193,0.093 0.218977,0.2089 0.305341,0.3484 0.115154,0.186 0.185477,0.3996 0.210974,0.6411 0.02343,0.2382 0.01928,0.4912 -0.01248,0.7589 -0.02841,0.2657 -0.07346,0.5417 -0.135092,0.8279 -0.0637,0.2829 -0.123432,0.5611 -0.179219,0.8345"
       style="font-size:10px;font-style:normal;font-variant:normal;font-weight:300;font-stretch:normal;text-align:center;line-height:125%;letter-spacing:0px;word-spacing:0px;writing-mode:lr-tb;text-anchor:middle;fill:#000000;fill-opacity:1;stroke:none;font-family:Josefin Slab;-inkscape-font-specification:Josefin Slab Light"
       id="path3290"
       inkscape:connector-curvature="0" />
    <path
       d="m 61.500545,3135.8751 c -0.126948,-0.1635 -0.2352,-0.3539 -0.324757,-0.5711 -0.09195,-0.2204 -0.145707,-0.4457 -0.161262,-0.6759 -0.01553,-0.2302 0.01822,-0.4542 0.101315,-0.672 0.0807,-0.2209 0.232118,-0.4176 0.454253,-0.59 0.215966,-0.1677 0.440602,-0.2605 0.673904,-0.2784 0.233993,-0.024 0.459034,0 0.675122,0.077 0.219182,0.072 0.421023,0.1825 0.605532,0.3309 0.185202,0.1431 0.342474,0.2979 0.471812,0.4645 0.170062,0.219 0.292663,0.4502 0.367813,0.6935 0.07584,0.2378 0.110567,0.4704 0.104204,0.6979 -0.0088,0.2243 -0.06034,0.435 -0.154718,0.6319 -0.0913,0.1945 -0.220248,0.3564 -0.386848,0.4857 -0.1666,0.1294 -0.356629,0.2126 -0.570081,0.2498 -0.210364,0.035 -0.423776,0.028 -0.640233,-0.022 -0.218848,-0.053 -0.433724,-0.1479 -0.644622,-0.2858 -0.210898,-0.1378 -0.401378,-0.3164 -0.571434,-0.5354 m 0.130615,-0.1088 c 0.16527,0.2129 0.345474,0.3845 0.540623,0.5149 0.195835,0.1248 0.393761,0.211 0.593773,0.2584 0.200704,0.042 0.394934,0.047 0.582689,0.015 0.18536,-0.035 0.349001,-0.1078 0.490923,-0.2179 0.141917,-0.1102 0.254059,-0.2492 0.336428,-0.417 0.08305,-0.1732 0.12758,-0.3611 0.133585,-0.5635 0.0091,-0.2049 -0.02103,-0.4188 -0.09038,-0.6419 -0.06934,-0.2231 -0.185453,-0.4395 -0.348327,-0.6493 -0.158081,-0.2036 -0.330416,-0.3715 -0.516994,-0.5035 -0.186578,-0.1321 -0.378335,-0.223 -0.575266,-0.2729 -0.196239,-0.055 -0.389777,-0.066 -0.58062,-0.031 -0.193234,0.031 -0.37161,0.1105 -0.535128,0.2374 -0.163512,0.1269 -0.287143,0.2798 -0.370888,0.4585 -0.08305,0.1733 -0.124845,0.3615 -0.125372,0.5646 -0.0029,0.2001 0.03492,0.4081 0.113519,0.6239 0.07621,0.2128 0.193345,0.421 0.351432,0.6247"
       style="font-size:10px;font-style:normal;font-variant:normal;font-weight:300;font-stretch:normal;text-align:center;line-height:125%;letter-spacing:0px;word-spacing:0px;writing-mode:lr-tb;text-anchor:middle;fill:#000000;fill-opacity:1;stroke:none;font-family:Josefin Slab;-inkscape-font-specification:Josefin Slab Light"
       id="path3292"
       inkscape:connector-curvature="0" />
    <path
       d="m 65.472098,3134.9267 0.344999,-0.3173 -2.363623,-2.5702 -0.448499,0.4124 -0.107075,-0.1164 0.569243,-0.5235 2.470703,2.6867 0.344993,-0.3173 0.107081,0.1164 -0.810747,0.7456 -0.107075,-0.1164"
       style="font-size:10px;font-style:normal;font-variant:normal;font-weight:300;font-stretch:normal;text-align:center;line-height:125%;letter-spacing:0px;word-spacing:0px;writing-mode:lr-tb;text-anchor:middle;fill:#000000;fill-opacity:1;stroke:none;font-family:Josefin Slab;-inkscape-font-specification:Josefin Slab Light"
       id="path3294"
       inkscape:connector-curvature="0" />
    <path
       d="m 65.397487,3129.833 0.3899,0.3636 -0.107889,0.1157 -0.274213,-0.2558 -0.927055,0.994 1.032583,0.9631 c 0.03041,-0.079 0.06514,-0.1529 0.104139,-0.2234 0.03879,-0.076 0.08884,-0.1468 0.150113,-0.2125 0.111885,-0.1199 0.241293,-0.2129 0.388225,-0.2788 0.146932,-0.066 0.297684,-0.1016 0.452255,-0.107 0.151713,-0.01 0.301721,0.014 0.450029,0.067 0.150975,0.05 0.286447,0.1309 0.406416,0.2428 0.122823,0.1146 0.215861,0.2467 0.279118,0.3965 0.06306,0.1443 0.09729,0.2937 0.10268,0.4483 0.0053,0.1545 -0.01969,0.3074 -0.07521,0.4586 -0.05554,0.1511 -0.139239,0.2867 -0.251124,0.4067 -0.111884,0.1199 -0.237203,0.2114 -0.37595,0.2742 -0.138748,0.063 -0.283974,0.098 -0.435687,0.1064 l 0.0023,-0.1659 c 0.126966,-0 0.248974,-0.032 0.366026,-0.083 0.119712,-0.054 0.22619,-0.1309 0.319432,-0.2309 0.09856,-0.1056 0.171808,-0.2243 0.219727,-0.3558 0.04775,-0.1371 0.06928,-0.2719 0.06467,-0.4044 -0.0047,-0.138 -0.03427,-0.2696 -0.08838,-0.3948 -0.05431,-0.1308 -0.132871,-0.2441 -0.235698,-0.34 -0.102833,-0.096 -0.219932,-0.1651 -0.351291,-0.2075 -0.128699,-0.045 -0.260627,-0.064 -0.395777,-0.057 -0.13249,0 -0.262589,0.038 -0.390293,0.1006 -0.127902,0.057 -0.241134,0.1383 -0.339702,0.244 -0.09324,0.1 -0.161344,0.2074 -0.204324,0.3222 -0.04582,0.1121 -0.06426,0.2178 -0.05525,0.3169 l -1.366784,-1.2746 1.146828,-1.2297"
       style="font-size:10px;font-style:normal;font-variant:normal;font-weight:300;font-stretch:normal;text-align:center;line-height:125%;letter-spacing:0px;word-spacing:0px;writing-mode:lr-tb;text-anchor:middle;fill:#000000;fill-opacity:1;stroke:none;font-family:Josefin Slab;-inkscape-font-specification:Josefin Slab Light"
       id="path3296"
       inkscape:connector-curvature="0" />
    <path
       d="m 24.961885,3132.2556 0.230671,-0.225 c -0.01535,-0.1 -0.05015,-0.1885 -0.104397,-0.2665 -0.05701,-0.081 -0.116859,-0.1534 -0.179589,-0.2177 -0.03275,-0.034 -0.07653,-0.064 -0.131424,-0.093 -0.0549,-0.028 -0.11404,-0.047 -0.177456,-0.056 -0.06614,-0.012 -0.132449,-0.01 -0.19894,0.01 -0.06648,0.016 -0.129086,0.052 -0.187802,0.1096 -0.07829,0.076 -0.119308,0.1545 -0.123069,0.2346 -0.0066,0.083 0.0062,0.1658 0.03832,0.249 0.02929,0.086 0.06967,0.1722 0.121077,0.2584 0.04863,0.089 0.08893,0.1779 0.120972,0.2667 0.02929,0.086 0.04066,0.1731 0.03404,0.2614 -0.01213,0.088 -0.06295,0.176 -0.152427,0.2633 -0.0699,0.068 -0.143686,0.1156 -0.221356,0.1422 -0.08039,0.024 -0.159223,0.033 -0.236483,0.026 -0.07725,-0.01 -0.148812,-0.027 -0.214682,-0.061 -0.07139,-0.034 -0.131629,-0.076 -0.180719,-0.1265 -0.0082,-0.01 -0.02724,-0.031 -0.05718,-0.067 -0.03275,-0.034 -0.06535,-0.075 -0.09787,-0.1255 -0.03527,-0.053 -0.0649,-0.1113 -0.08897,-0.1751 -0.02683,-0.061 -0.03849,-0.1234 -0.03498,-0.1869 l 0.293583,-0.2864 0.106366,0.1091 -0.234866,0.2291 c 0.0023,0.041 0.01412,0.084 0.03568,0.1288 0.01881,0.042 0.04318,0.081 0.07312,0.117 0.02443,0.036 0.04886,0.067 0.07343,0.092 0.02174,0.028 0.03673,0.046 0.04488,0.054 0.03275,0.034 0.07377,0.064 0.123139,0.093 0.04664,0.025 0.09751,0.044 0.152597,0.056 0.05238,0.01 0.107673,0 0.165909,-0.015 0.05824,-0.019 0.113911,-0.054 0.167039,-0.1057 0.07269,-0.071 0.109523,-0.145 0.11049,-0.2223 0.0012,-0.077 -0.01459,-0.1576 -0.04669,-0.2409 -0.03486,-0.086 -0.07656,-0.1736 -0.125167,-0.2626 -0.04863,-0.089 -0.08477,-0.1792 -0.108492,-0.2706 -0.02924,-0.091 -0.03638,-0.1828 -0.02144,-0.2737 0.01213,-0.088 0.06435,-0.1774 0.156622,-0.2674 0.05033,-0.049 0.112998,-0.091 0.188007,-0.1261 0.06949,-0.035 0.148455,-0.055 0.236893,-0.059 0.08292,-0 0.171117,0.01 0.2646,0.045 0.08796,0.034 0.174216,0.095 0.258758,0.1814 0.02179,0.022 0.05179,0.056 0.0899,0.1005 0.03539,0.042 0.07067,0.092 0.105845,0.1505 0.03246,0.056 0.06347,0.1154 0.09306,0.1793 0.02678,0.067 0.03978,0.1331 0.03896,0.1994 l -0.293582,0.2863 -0.106366,-0.109"
       id="path3135"
       style="font-size:10px;font-style:normal;font-variant:normal;font-weight:300;font-stretch:normal;text-align:center;line-height:125%;letter-spacing:0px;word-spacing:0px;writing-mode:lr-tb;text-anchor:middle;fill:#000000;fill-opacity:1;stroke:none;font-family:Josefin Slab;-inkscape-font-specification:Josefin Slab Light"
       inkscape:connector-curvature="0" />
    <path
       d="m 23.392036,3131.4044 c -0.120456,0.1 -0.253549,0.1714 -0.399274,0.2158 -0.145719,0.044 -0.290067,0.06 -0.433033,0.046 -0.148467,-0.014 -0.288813,-0.055 -0.42104,-0.1234 -0.137721,-0.069 -0.257574,-0.1646 -0.359552,-0.2881 -0.101977,-0.1235 -0.173642,-0.2593 -0.215004,-0.4075 -0.04435,-0.1458 -0.05824,-0.2913 -0.0416,-0.4368 0.01113,-0.146 0.05226,-0.2863 0.123374,-0.421 0.06862,-0.1378 0.163161,-0.2564 0.283617,-0.3559 0.123473,-0.1019 0.259314,-0.1736 0.407523,-0.215 0.142714,-0.042 0.286798,-0.054 0.432254,-0.038 0.142965,0.014 0.283312,0.055 0.421034,0.1234 0.134716,0.071 0.253063,0.1684 0.35504,0.2918 0.101978,0.1235 0.175148,0.2581 0.219516,0.4038 0.03884,0.1452 0.05273,0.2908 0.0416,0.4368 -0.01365,0.143 -0.05449,0.2806 -0.122589,0.4128 -0.0711,0.1347 -0.168393,0.253 -0.291866,0.355 m -0.104462,-0.1265 c 0.105405,-0.087 0.188617,-0.1887 0.249636,-0.3049 0.058,-0.1138 0.09429,-0.2324 0.108838,-0.3559 0.009,-0.1239 -0.0041,-0.2473 -0.03966,-0.37 -0.03796,-0.1256 -0.100455,-0.2412 -0.18751,-0.3466 -0.08457,-0.1024 -0.184978,-0.1841 -0.301234,-0.2451 -0.116249,-0.061 -0.234866,-0.097 -0.355837,-0.1089 -0.126473,-0.012 -0.251048,-3e-4 -0.373725,0.035 -0.128178,0.035 -0.244966,0.096 -0.350371,0.183 -0.105405,0.087 -0.185869,0.189 -0.241393,0.3058 -0.06102,0.1162 -0.09756,0.2376 -0.109623,0.3641 -0.01453,0.1234 -0.0029,0.248 0.03509,0.3737 0.03796,0.1257 0.09922,0.2397 0.183778,0.3421 0.08706,0.1054 0.18871,0.1886 0.304965,0.2497 0.113766,0.058 0.233888,0.093 0.360355,0.1051 0.123989,0.01 0.248822,-0.01 0.374515,-0.043 0.122677,-0.035 0.236718,-0.097 0.342123,-0.1838"
       id="path3137"
       style="font-size:10px;font-style:normal;font-variant:normal;font-weight:300;font-stretch:normal;text-align:center;line-height:125%;letter-spacing:0px;word-spacing:0px;writing-mode:lr-tb;text-anchor:middle;fill:#000000;fill-opacity:1;stroke:none;font-family:Josefin Slab;-inkscape-font-specification:Josefin Slab Light"
       inkscape:connector-curvature="0" />
    <path
       d="m 20.617316,3125.9313 -0.243906,-0.3934 -1.200003,0.7441 c -0.112066,0.079 -0.18489,0.1835 -0.218484,0.3147 -0.03562,0.1278 -0.01359,0.2634 0.06623,0.407 0.06587,0.1062 0.146902,0.1961 0.243103,0.2698 0.09083,0.072 0.188758,0.1265 0.293788,0.1625 0.105035,0.036 0.215116,0.05 0.330234,0.043 0.111803,-0.01 0.218526,-0.037 0.32017,-0.095 l 0.946066,-0.5866 -0.240818,-0.3884 0.134441,-0.083 0.568077,0.9162 -0.134441,0.083 -0.2439,-0.3934 -1.200009,0.7441 c -0.112066,0.079 -0.18489,0.1836 -0.218485,0.3147 -0.03562,0.1278 -0.01359,0.2634 0.06624,0.407 0.06586,0.1062 0.147927,0.1978 0.246185,0.2747 0.09288,0.076 0.194534,0.1322 0.304942,0.1694 0.108352,0.034 0.220723,0.045 0.337107,0.032 0.113063,-0.01 0.221051,-0.047 0.323955,-0.1112 l 0.921166,-0.5712 -0.240812,-0.3884 0.134441,-0.083 0.568071,0.9161 -0.134441,0.083 -0.240813,-0.3884 -1.598351,0.9911 0.22538,0.3634 -0.13444,0.083 -0.290214,-0.468 0.212913,-0.1458 c 0.0498,-0.031 0.09358,-0.06 0.131353,-0.088 0.03779,-0.028 0.08156,-0.057 0.131354,-0.088 -0.200499,0.032 -0.392508,0 -0.576016,-0.084 -0.18683,-0.086 -0.3389,-0.2241 -0.456221,-0.4133 -0.102909,-0.166 -0.139796,-0.3293 -0.110661,-0.4898 0.02584,-0.1585 0.108282,-0.2923 0.247363,-0.4015 -0.194657,0.019 -0.381048,-0.014 -0.559183,-0.1014 -0.181446,-0.085 -0.328776,-0.219 -0.441985,-0.4015 -0.111141,-0.1793 -0.14716,-0.3523 -0.108065,-0.519 0.03703,-0.17 0.136497,-0.3098 0.298352,-0.4194 l 1.209962,-0.7502 -0.237725,-0.3834 0.134441,-0.083 0.568077,0.9161 -0.134441,0.083"
       id="path3139"
       style="font-size:10px;font-style:normal;font-variant:normal;font-weight:300;font-stretch:normal;text-align:center;line-height:125%;letter-spacing:0px;word-spacing:0px;writing-mode:lr-tb;text-anchor:middle;fill:#000000;fill-opacity:1;stroke:none;font-family:Josefin Slab;-inkscape-font-specification:Josefin Slab Light"
       inkscape:connector-curvature="0" />
    <path
       d="m 17.68151,3124.3431 c 0.06572,0.146 0.157887,0.2652 0.276498,0.3574 0.118616,0.092 0.248001,0.1561 0.388154,0.1915 0.13856,0.032 0.282727,0.033 0.432494,0 0.149779,-0.029 0.286101,-0.092 0.408982,-0.1905 -0.227073,-0.219 -0.450761,-0.4353 -0.671068,-0.6488 -0.225474,-0.2155 -0.451745,-0.4328 -0.678819,-0.6518 -0.112014,0.1318 -0.18369,0.2818 -0.215028,0.4501 -0.03293,0.1648 -0.01336,0.3273 0.05879,0.4876 m 0.14982,-1.1661 c 0.24738,0.2356 0.492973,0.472 0.736791,0.7092 0.243813,0.2372 0.489412,0.4736 0.736786,0.7092 0.129825,-0.1398 0.212538,-0.3033 0.248154,-0.4907 0.03046,-0.1893 0.0029,-0.3783 -0.08177,-0.5671 -0.05449,-0.1211 -0.126362,-0.2237 -0.215591,-0.3078 -0.08923,-0.084 -0.189671,-0.1502 -0.301339,-0.1984 0.01142,-0.022 0.02279,-0.045 0.03421,-0.067 0.01142,-0.022 0.02197,-0.046 0.03181,-0.072 0.130721,0.053 0.248265,0.1281 0.352627,0.2267 0.102763,0.095 0.185401,0.2122 0.247914,0.3511 0.06572,0.146 0.100723,0.2951 0.105,0.4474 -0.0012,0.1503 -0.02677,0.2926 -0.07772,0.4269 -0.05091,0.1343 -0.125899,0.258 -0.224912,0.3711 -0.10418,0.1111 -0.229288,0.1995 -0.375318,0.2652 -0.142473,0.064 -0.289839,0.098 -0.442108,0.1026 -0.153868,6e-4 -0.297947,-0.024 -0.43223,-0.075 -0.134282,-0.051 -0.256186,-0.1267 -0.365721,-0.2273 -0.114691,-0.1026 -0.204898,-0.2269 -0.270622,-0.3729 -0.09617,-0.2137 -0.114433,-0.4304 -0.05478,-0.65 0.05806,-0.2231 0.174339,-0.4168 0.34886,-0.581"
       id="path3141"
       style="font-size:10px;font-style:normal;font-variant:normal;font-weight:300;font-stretch:normal;text-align:center;line-height:125%;letter-spacing:0px;word-spacing:0px;writing-mode:lr-tb;text-anchor:middle;fill:#000000;fill-opacity:1;stroke:none;font-family:Josefin Slab;-inkscape-font-specification:Josefin Slab Light"
       inkscape:connector-curvature="0" />
    <path
       d="m 18.289245,3120.5607 -0.12628,-0.4392 -1.807427,0.5197 0.118183,0.411 -0.152029,0.044 -0.152182,-0.5293 0.24451,-0.082 c 0.0563,-0.016 0.106442,-0.033 0.150406,-0.049 0.04394,-0.017 0.0941,-0.033 0.150412,-0.049 -0.207681,-0.03 -0.38594,-0.1126 -0.534782,-0.2486 -0.153675,-0.1387 -0.259906,-0.3032 -0.31871,-0.4936 l 0.153645,-0.038 c 0.03832,0.1191 0.09374,0.2271 0.166325,0.3241 0.0726,0.097 0.156423,0.1765 0.251487,0.2386 0.09399,0.058 0.196796,0.098 0.308423,0.1185 0.110554,0.017 0.222134,0.01 0.334746,-0.023 l 1.041664,-0.2995 -0.12628,-0.4392 0.152029,-0.044 0.297888,1.036 -0.152028,0.044"
       id="path3143"
       style="font-size:10px;font-style:normal;font-variant:normal;font-weight:300;font-stretch:normal;text-align:center;line-height:125%;letter-spacing:0px;word-spacing:0px;writing-mode:lr-tb;text-anchor:middle;fill:#000000;fill-opacity:1;stroke:none;font-family:Josefin Slab;-inkscape-font-specification:Josefin Slab Light"
       inkscape:connector-curvature="0" />
    <path
       d="m 15.630598,3117.9164 c 0.0317,0.1569 0.09518,0.2936 0.190381,0.4098 0.09521,0.1163 0.207224,0.2072 0.33604,0.2728 0.128044,0.062 0.268285,0.095 0.420724,0.1003 0.152445,0.01 0.299459,-0.027 0.441035,-0.095 -0.172862,-0.2639 -0.343036,-0.5244 -0.510526,-0.7814 -0.172083,-0.2601 -0.344559,-0.5222 -0.517422,-0.7861 -0.138443,0.1037 -0.241604,0.2341 -0.309471,0.3913 -0.06864,0.1533 -0.08556,0.3161 -0.05074,0.4884 m 0.404606,-1.1038 c 0.188991,0.2845 0.376062,0.5695 0.561222,0.8549 0.18516,0.2853 0.37223,0.5703 0.561222,0.8549 0.157583,-0.1076 0.274512,-0.2487 0.35077,-0.4235 0.07166,-0.1779 0.08699,-0.3683 0.04599,-0.5712 -0.02631,-0.1301 -0.07363,-0.2461 -0.142004,-0.3478 -0.06837,-0.1018 -0.151649,-0.1886 -0.249836,-0.2604 0.01605,-0.019 0.03211,-0.038 0.04816,-0.057 0.01605,-0.019 0.0317,-0.04 0.04699,-0.063 0.115827,0.08 0.21368,0.18 0.293576,0.2993 0.07912,0.1155 0.133767,0.2479 0.163928,0.3973 0.0317,0.1569 0.03275,0.3101 0.0029,0.4596 -0.03421,0.1463 -0.091,0.2793 -0.170432,0.399 -0.07943,0.1196 -0.179957,0.2236 -0.301579,0.312 -0.126221,0.085 -0.267822,0.1437 -0.42479,0.1754 -0.153136,0.031 -0.304421,0.032 -0.453848,0 -0.150201,-0.033 -0.285129,-0.09 -0.404776,-0.1693 -0.119648,-0.079 -0.221725,-0.1803 -0.306226,-0.3027 -0.08909,-0.1255 -0.149498,-0.2667 -0.181211,-0.4237 -0.0464,-0.2297 -0.01617,-0.445 0.09066,-0.6459 0.106085,-0.2047 0.262414,-0.3678 0.468994,-0.4892"
       id="path3145"
       style="font-size:10px;font-style:normal;font-variant:normal;font-weight:300;font-stretch:normal;text-align:center;line-height:125%;letter-spacing:0px;word-spacing:0px;writing-mode:lr-tb;text-anchor:middle;fill:#000000;fill-opacity:1;stroke:none;font-family:Josefin Slab;-inkscape-font-specification:Josefin Slab Light"
       inkscape:connector-curvature="0" />
    <path
       d="m 16.303014,3116.2139 c -0.155503,0.015 -0.304117,10e-5 -0.445846,-0.045 -0.145613,-0.045 -0.273867,-0.1127 -0.384768,-0.204 -0.115154,-0.095 -0.208501,-0.2073 -0.280031,-0.3377 -0.07579,-0.1339 -0.121429,-0.2806 -0.136913,-0.44 -0.01131,-0.1166 -0.0047,-0.2291 0.02021,-0.3375 0.02092,-0.1079 0.05636,-0.2075 0.106366,-0.2987 0.04962,-0.095 0.110297,-0.1775 0.182002,-0.2473 0.07134,-0.074 0.148063,-0.1321 0.230191,-0.1754 -0.09718,0.01 -0.194563,0.017 -0.292135,0.023 -0.09756,0.01 -0.197259,0.01 -0.299096,0.011 l -0.01189,-0.1224 2.029298,-0.1971 -0.04189,-0.4315 0.157443,-0.015 0.05607,0.5773 -0.274073,0.027 -0.32072,0.031 c 0.08892,0.027 0.175282,0.067 0.259074,0.122 0.0838,0.055 0.159189,0.1239 0.226189,0.2076 0.06662,0.08 0.122525,0.1706 0.167707,0.2722 0.04131,0.1019 0.0678,0.2131 0.0795,0.3337 0.01547,0.1593 5.86e-4,0.3118 -0.04388,0.4575 -0.04898,0.1421 -0.118916,0.2705 -0.209797,0.3853 -0.09126,0.1109 -0.202086,0.2021 -0.332484,0.2736 -0.134289,0.072 -0.281127,0.1156 -0.440514,0.1311 m -0.01588,-0.1633 c 0.136064,-0.013 0.261899,-0.051 0.377504,-0.1132 0.111714,-0.062 0.208126,-0.1399 0.289235,-0.2341 0.07684,-0.098 0.134863,-0.2073 0.174075,-0.3289 0.03884,-0.1254 0.05162,-0.2561 0.03843,-0.3922 -0.01324,-0.1361 -0.05097,-0.2619 -0.113191,-0.3775 -0.06224,-0.1156 -0.14047,-0.214 -0.234685,-0.2951 -0.0981,-0.081 -0.207915,-0.1407 -0.329449,-0.1799 -0.125425,-0.039 -0.256163,-0.052 -0.392233,-0.038 -0.136058,0.013 -0.259953,0.051 -0.371668,0.1126 -0.115605,0.062 -0.213774,0.1424 -0.294502,0.2405 -0.08073,0.098 -0.140505,0.2099 -0.179342,0.3353 -0.03884,0.1254 -0.05162,0.2562 -0.03843,0.3922 0.01324,0.1361 0.05097,0.2619 0.113191,0.3775 0.06187,0.1118 0.141853,0.208 0.239946,0.2887 0.09772,0.077 0.209298,0.1347 0.334717,0.1735 0.12154,0.039 0.250339,0.052 0.386402,0.039"
       id="path3147"
       style="font-size:10px;font-style:normal;font-variant:normal;font-weight:300;font-stretch:normal;text-align:center;line-height:125%;letter-spacing:0px;word-spacing:0px;writing-mode:lr-tb;text-anchor:middle;fill:#000000;fill-opacity:1;stroke:none;font-family:Josefin Slab;-inkscape-font-specification:Josefin Slab Light"
       inkscape:connector-curvature="0" />
    <path
       d="m 16.989321,3112.9846 -0.0059,-0.4276 -4.077339,0.054 0.0059,0.4218 -0.158169,0 -0.0078,-0.5858 4.235508,-0.056 -0.0064,-0.4862 0.158175,-0 0.0143,1.0779 -0.158175,0"
       id="path3149"
       style="font-size:10px;font-style:normal;font-variant:normal;font-weight:300;font-stretch:normal;text-align:center;line-height:125%;letter-spacing:0px;word-spacing:0px;writing-mode:lr-tb;text-anchor:middle;fill:#000000;fill-opacity:1;stroke:none;font-family:Josefin Slab;-inkscape-font-specification:Josefin Slab Light"
       inkscape:connector-curvature="0" />
    <path
       d="m 16.980749,3111.4885 0.01734,-0.4274 -4.074345,-0.1653 -0.01711,0.4215 -0.158058,-0.01 0.02373,-0.5854 4.232397,0.1718 0.01969,-0.4859 0.158058,0.01 -0.04371,1.0772 -0.158057,-0.01"
       id="path3151"
       style="font-size:10px;font-style:normal;font-variant:normal;font-weight:300;font-stretch:normal;text-align:center;line-height:125%;letter-spacing:0px;word-spacing:0px;writing-mode:lr-tb;text-anchor:middle;fill:#000000;fill-opacity:1;stroke:none;font-family:Josefin Slab;-inkscape-font-specification:Josefin Slab Light"
       inkscape:connector-curvature="0" />
    <path
       d="m 18.511725,3109.8435 0.06326,-0.4822 c -0.19928,-0.1325 -0.400241,-0.2672 -0.602884,-0.4041 -0.19877,-0.1363 -0.395859,-0.2705 -0.591266,-0.4025 -0.363653,0.1295 -0.725121,0.2574 -1.084397,0.3836 -0.36264,0.1218 -0.725532,0.2456 -1.088681,0.3713 l -0.05642,0.4298 -0.156839,-0.021 0.13184,-1.005 0.156845,0.021 -0.05109,0.3892 c 0.334014,-0.1138 0.666083,-0.2278 0.996218,-0.342 0.330639,-0.1182 0.662461,-0.2302 0.99545,-0.3363 -0.283271,-0.1829 -0.571329,-0.3743 -0.864185,-0.5742 -0.296728,-0.2005 -0.591518,-0.4007 -0.884373,-0.6006 l -0.04341,0.3311 -0.156845,-0.021 0.119648,-0.912 0.156845,0.021 -0.05261,0.4008 c 1.034926,0.6991 2.068423,1.3941 3.10049,2.0849 l 0.05261,-0.4008 0.156839,0.021 -0.140223,1.0688 -0.156845,-0.021"
       id="path3153"
       style="font-size:10px;font-style:normal;font-variant:normal;font-weight:300;font-stretch:normal;text-align:center;line-height:125%;letter-spacing:0px;word-spacing:0px;writing-mode:lr-tb;text-anchor:middle;fill:#000000;fill-opacity:1;stroke:none;font-family:Josefin Slab;-inkscape-font-specification:Josefin Slab Light"
       inkscape:connector-curvature="0" />
    <path
       d="m 17.938445,3104.7916 0.131512,-0.4377 -1.8011,-0.5412 -0.12308,0.4096 -0.151496,-0.045 0.158491,-0.5275 0.250251,0.063 c 0.05613,0.017 0.107168,0.03 0.153183,0.04 0.04599,0.01 0.09707,0.023 0.153177,0.04 -0.158561,-0.1374 -0.263609,-0.3035 -0.315148,-0.4985 -0.05413,-0.1998 -0.05443,-0.3956 -5.86e-4,-0.5875 l 0.149808,0.051 c -0.03222,0.1209 -0.04406,0.2417 -0.0355,0.3625 0.0086,0.1209 0.03597,0.2331 0.08234,0.3368 0.04746,0.1 0.112518,0.1888 0.195161,0.2666 0.08377,0.074 0.181763,0.1281 0.293981,0.1618 l 1.038014,0.3119 0.131512,-0.4376 0.151495,0.046 -0.310238,1.0324 -0.15149,-0.046"
       id="path3155"
       style="font-size:10px;font-style:normal;font-variant:normal;font-weight:300;font-stretch:normal;text-align:center;line-height:125%;letter-spacing:0px;word-spacing:0px;writing-mode:lr-tb;text-anchor:middle;fill:#000000;fill-opacity:1;stroke:none;font-family:Josefin Slab;-inkscape-font-specification:Josefin Slab Light"
       inkscape:connector-curvature="0" />
    <path
       d="m 17.135069,3101.1286 c -0.05835,0.1492 -0.07898,0.2984 -0.0619,0.4476 0.01711,0.1493 0.062,0.2864 0.134746,0.4114 0.07418,0.1213 0.17397,0.2253 0.299377,0.3121 0.125412,0.087 0.266157,0.1398 0.422246,0.159 -0.0023,-0.3155 -0.0041,-0.6267 -0.006,-0.9335 -0.0035,-0.3118 -0.0069,-0.6255 -0.0093,-0.941 -0.172534,0.012 -0.329883,0.066 -0.472052,0.1613 -0.140745,0.092 -0.243138,0.2194 -0.30718,0.3831 m 0.937923,-0.7088 c 0.0047,0.3416 0.0077,0.6825 0.0088,1.0226 0.0012,0.3402 0.0041,0.6811 0.0088,1.0227 0.19072,-0.01 0.365464,-0.061 0.524236,-0.1661 0.156558,-0.1107 0.272549,-0.2625 0.347981,-0.4552 0.04839,-0.1237 0.07139,-0.2468 0.06902,-0.3694 -0.0023,-0.1225 -0.02537,-0.2406 -0.06904,-0.3541 0.0239,-0.01 0.04775,-0.015 0.07164,-0.022 0.0239,-0.01 0.04845,-0.017 0.07377,-0.028 0.05396,0.1301 0.08216,0.267 0.08469,0.4106 0.0041,0.1399 -0.02179,0.2809 -0.07732,0.4227 -0.05835,0.1491 -0.140423,0.2785 -0.246214,0.3881 -0.108012,0.1045 -0.227801,0.1856 -0.359377,0.2431 -0.13157,0.058 -0.272397,0.091 -0.422475,0.099 -0.152286,0 -0.302997,-0.024 -0.452132,-0.083 -0.14549,-0.057 -0.273036,-0.1382 -0.382635,-0.244 -0.108171,-0.1095 -0.191037,-0.23 -0.248611,-0.3615 -0.05759,-0.1316 -0.08873,-0.2717 -0.09347,-0.4204 -0.007,-0.1537 0.01875,-0.3051 0.07708,-0.4543 0.08539,-0.2182 0.227402,-0.3828 0.42602,-0.4938 0.200053,-0.1147 0.419786,-0.1671 0.659216,-0.1573"
       id="path3157"
       style="font-size:10px;font-style:normal;font-variant:normal;font-weight:300;font-stretch:normal;text-align:center;line-height:125%;letter-spacing:0px;word-spacing:0px;writing-mode:lr-tb;text-anchor:middle;fill:#000000;fill-opacity:1;stroke:none;font-family:Josefin Slab;-inkscape-font-specification:Josefin Slab Light"
       inkscape:connector-curvature="0" />
    <path
       d="m 18.62221,3100.0625 c -0.138959,-0.071 -0.255847,-0.1644 -0.350665,-0.279 -0.09829,-0.1164 -0.169382,-0.243 -0.2133,-0.3797 -0.04558,-0.142 -0.06321,-0.2872 -0.05285,-0.4355 0.0087,-0.1537 0.04962,-0.3017 0.122806,-0.4441 0.05355,-0.1043 0.120069,-0.1952 0.199532,-0.273 0.07599,-0.08 0.15968,-0.1441 0.251059,-0.1937 0.09317,-0.053 0.188775,-0.09 0.286816,-0.1095 0.09983,-0.023 0.195993,-0.031 0.288485,-0.023 -0.08685,-0.045 -0.17281,-0.091 -0.257873,-0.1391 -0.08506,-0.048 -0.170976,-0.099 -0.257733,-0.1521 l 0.05624,-0.1095 1.813444,0.9319 0.198149,-0.3857 0.140698,0.072 -0.265091,0.5159 -0.244919,-0.1258 -0.286605,-0.1473 c 0.06036,0.071 0.111,0.1515 0.151918,0.2428 0.04089,0.091 0.06691,0.1902 0.07796,0.2969 0.01283,0.1032 0.01078,0.2097 -0.0062,0.3196 -0.02039,0.1081 -0.05829,0.216 -0.113618,0.3237 -0.07319,0.1424 -0.167977,0.2628 -0.284349,0.3611 -0.118066,0.093 -0.246355,0.1632 -0.38488,0.2106 -0.136737,0.044 -0.279293,0.061 -0.42766,0.05 -0.151841,-0.012 -0.298978,-0.055 -0.441416,-0.128 m 0.07497,-0.1459 c 0.121593,0.062 0.247837,0.099 0.37874,0.109 0.127428,0.01 0.250731,-0.01 0.369904,-0.041 0.117486,-0.041 0.225592,-0.1015 0.324306,-0.1825 0.100501,-0.084 0.18199,-0.1875 0.244474,-0.3091 0.06248,-0.1216 0.0988,-0.2478 0.108985,-0.3787 0.01019,-0.1309 -0.0023,-0.256 -0.03779,-0.3752 -0.03884,-0.1209 -0.09877,-0.2308 -0.179788,-0.3295 -0.08449,-0.1005 -0.187527,-0.182 -0.30912,-0.2445 -0.121587,-0.062 -0.246097,-0.098 -0.373525,-0.1063 -0.130902,-0.01 -0.256831,0 -0.377796,0.043 -0.12096,0.039 -0.231691,0.1006 -0.332192,0.185 -0.100501,0.084 -0.181991,0.1876 -0.244474,0.3092 -0.06248,0.1216 -0.0988,0.2478 -0.108985,0.3787 -0.0084,0.1274 0.0069,0.2516 0.0457,0.3726 0.04066,0.1175 0.103191,0.2265 0.18768,0.327 0.08102,0.099 0.182319,0.1793 0.303905,0.2418"
       id="path3159"
       style="font-size:10px;font-style:normal;font-variant:normal;font-weight:300;font-stretch:normal;text-align:center;line-height:125%;letter-spacing:0px;word-spacing:0px;writing-mode:lr-tb;text-anchor:middle;fill:#000000;fill-opacity:1;stroke:none;font-family:Josefin Slab;-inkscape-font-specification:Josefin Slab Light"
       inkscape:connector-curvature="0" />
    <path
       d="m 20.9455,3097.7175 0.226154,-0.363 -3.460991,-2.1562 -0.223055,0.358 -0.134265,-0.084 0.309799,-0.4973 3.595257,2.2398 0.257129,-0.4127 0.134266,0.084 -0.570028,0.915 -0.134266,-0.084"
       id="path3161"
       style="font-size:10px;font-style:normal;font-variant:normal;font-weight:300;font-stretch:normal;text-align:center;line-height:125%;letter-spacing:0px;word-spacing:0px;writing-mode:lr-tb;text-anchor:middle;fill:#000000;fill-opacity:1;stroke:none;font-family:Josefin Slab;-inkscape-font-specification:Josefin Slab Light"
       inkscape:connector-curvature="0" />
    <path
       d="m 21.746018,3096.4536 0.245113,-0.3505 -3.341555,-2.337 -0.241762,0.3456 -0.129631,-0.091 0.335777,-0.4801 3.471192,2.4276 0.278695,-0.3985 0.129625,0.091 -0.617823,0.8834 -0.129631,-0.091"
       id="path3163"
       style="font-size:10px;font-style:normal;font-variant:normal;font-weight:300;font-stretch:normal;text-align:center;line-height:125%;letter-spacing:0px;word-spacing:0px;writing-mode:lr-tb;text-anchor:middle;fill:#000000;fill-opacity:1;stroke:none;font-family:Josefin Slab;-inkscape-font-specification:Josefin Slab Light"
       inkscape:connector-curvature="0" />
    <path
       d="m 23.922957,3095.8934 0.313069,-0.3721 c -0.09649,-0.219 -0.193211,-0.4408 -0.290167,-0.6653 -0.09397,-0.2219 -0.187703,-0.4412 -0.281197,-0.6577 -0.376168,-0.087 -0.749576,-0.1738 -1.120236,-0.2611 -0.371135,-0.093 -0.743523,-0.184 -1.117172,-0.2738 l -0.279123,0.3318 -0.121042,-0.1019 0.652537,-0.7756 0.121042,0.1019 -0.252717,0.3004 c 0.342673,0.084 0.683846,0.167 1.023525,0.2486 0.342198,0.079 0.682112,0.163 1.019752,0.2531 -0.140077,-0.3067 -0.279609,-0.6232 -0.418597,-0.9494 -0.141975,-0.3287 -0.282456,-0.6562 -0.421444,-0.9824 l -0.214998,0.2555 -0.121042,-0.1018 0.592191,-0.7039 0.121042,0.1019 -0.260263,0.3093 c 0.495182,1.1465 0.991384,2.2889 1.488611,3.4269 l 0.260257,-0.3093 0.121042,0.1018 -0.694028,0.8249 -0.121042,-0.1018"
       id="path3165"
       style="font-size:10px;font-style:normal;font-variant:normal;font-weight:300;font-stretch:normal;text-align:center;line-height:125%;letter-spacing:0px;word-spacing:0px;writing-mode:lr-tb;text-anchor:middle;fill:#000000;fill-opacity:1;stroke:none;font-family:Josefin Slab;-inkscape-font-specification:Josefin Slab Light"
       inkscape:connector-curvature="0" />
    <path
       d="m 26.161501,3091.3281 0.346663,-0.2977 -1.225383,-1.4267 -0.324441,0.2787 -0.103067,-0.12 0.41777,-0.3589 0.176853,0.188 c 0.0382,0.044 0.07401,0.083 0.107514,0.1161 0.03351,0.033 0.06934,0.072 0.107514,0.1162 -0.05951,-0.2011 -0.05847,-0.3977 0.0029,-0.5897 0.06207,-0.1975 0.167397,-0.3626 0.315958,-0.4954 l 0.09863,0.1239 c -0.09227,0.084 -0.167367,0.1798 -0.225299,0.2862 -0.05794,0.1064 -0.09531,0.2157 -0.112142,0.328 -0.01389,0.1097 -0.007,0.2196 0.02068,0.3298 0.03064,0.1075 0.0841,0.2058 0.160442,0.2947 l 0.706215,0.8222 0.346663,-0.2978 0.103073,0.12 -0.817771,0.7024 -0.103068,-0.12"
       id="path3167"
       style="font-size:10px;font-style:normal;font-variant:normal;font-weight:300;font-stretch:normal;text-align:center;line-height:125%;letter-spacing:0px;word-spacing:0px;writing-mode:lr-tb;text-anchor:middle;fill:#000000;fill-opacity:1;stroke:none;font-family:Josefin Slab;-inkscape-font-specification:Josefin Slab Light"
       inkscape:connector-curvature="0" />
    <path
       d="m 27.461138,3087.8094 c -0.129614,0.094 -0.227514,0.2086 -0.293706,0.3435 -0.06619,0.1349 -0.102376,0.2745 -0.108563,0.419 -0.0029,0.1421 0.02484,0.2836 0.08354,0.4243 0.05872,0.1408 0.148614,0.2614 0.269691,0.3617 0.168275,-0.2669 0.334535,-0.5299 0.498785,-0.789 0.165112,-0.2646 0.331811,-0.5303 0.500086,-0.7972 -0.151824,-0.083 -0.313309,-0.1225 -0.48446,-0.119 -0.167995,0 -0.323117,0.053 -0.465373,0.1567 m 1.172156,-0.09 c -0.180368,0.2901 -0.361872,0.5786 -0.544531,0.8656 -0.182653,0.287 -0.364163,0.5755 -0.544525,0.8656 0.16329,0.099 0.340277,0.1464 0.530956,0.1432 0.191546,-0.01 0.371094,-0.074 0.538643,-0.1954 0.107479,-0.078 0.193298,-0.1692 0.257445,-0.2737 0.06415,-0.1045 0.108493,-0.2163 0.133029,-0.3354 0.02414,0.01 0.04822,0.013 0.07234,0.02 0.02414,0.01 0.0498,0.012 0.07708,0.017 -0.02484,0.1387 -0.07495,0.2691 -0.150318,0.3914 -0.0722,0.1199 -0.169951,0.2246 -0.293243,0.3141 -0.129607,0.094 -0.268524,0.1586 -0.416733,0.1938 -0.147348,0.03 -0.291942,0.033 -0.433771,0.011 -0.141835,-0.023 -0.278186,-0.071 -0.409053,-0.1447 -0.13,-0.079 -0.242025,-0.1839 -0.336082,-0.3135 -0.09175,-0.1265 -0.155216,-0.2638 -0.190374,-0.412 -0.03199,-0.1505 -0.03674,-0.2967 -0.01418,-0.4385 0.02256,-0.1419 0.07194,-0.2766 0.148179,-0.4043 0.0771,-0.1332 0.180456,-0.2468 0.310069,-0.3408 0.189672,-0.1377 0.398074,-0.1996 0.625206,-0.1859 0.230296,0.011 0.443578,0.086 0.639853,0.2234"
       id="path3169"
       style="font-size:10px;font-style:normal;font-variant:normal;font-weight:300;font-stretch:normal;text-align:center;line-height:125%;letter-spacing:0px;word-spacing:0px;writing-mode:lr-tb;text-anchor:middle;fill:#000000;fill-opacity:1;stroke:none;font-family:Josefin Slab;-inkscape-font-specification:Josefin Slab Light"
       inkscape:connector-curvature="0" />
    <path
       d="m 29.289879,3087.7139 c -0.07826,-0.1352 -0.126286,-0.2767 -0.144061,-0.4243 -0.01974,-0.1511 -0.01107,-0.296 0.02595,-0.4347 0.03843,-0.1441 0.102148,-0.2758 0.191113,-0.395 0.09039,-0.1245 0.204881,-0.2269 0.343476,-0.3071 0.101415,-0.059 0.206562,-0.099 0.315441,-0.1217 0.106922,-0.026 0.212245,-0.035 0.315963,-0.027 0.107098,0.01 0.207259,0.027 0.300478,0.063 0.0966,0.034 0.181633,0.08 0.255102,0.1366 -0.04892,-0.084 -0.09614,-0.17 -0.141676,-0.2564 -0.04552,-0.086 -0.09035,-0.1756 -0.134465,-0.2674 l 0.106483,-0.062 1.021358,1.7646 0.375224,-0.2172 0.07925,0.1369 -0.501996,0.2906 -0.137938,-0.2383 -0.161421,-0.2789 c 0.0126,0.092 0.01148,0.1874 -0.0035,0.2863 -0.01494,0.099 -0.04664,0.1962 -0.09503,0.292 -0.045,0.094 -0.104362,0.1822 -0.178024,0.2655 -0.07562,0.08 -0.165821,0.1501 -0.270616,0.2108 -0.138595,0.08 -0.283418,0.1301 -0.434463,0.1499 -0.149621,0.014 -0.295498,0 -0.437643,-0.031 -0.138765,-0.037 -0.267739,-0.1 -0.38693,-0.189 -0.121142,-0.092 -0.221824,-0.2078 -0.302048,-0.3464 m 0.141981,-0.082 c 0.06848,0.1183 0.155023,0.2172 0.259619,0.2965 0.102645,0.076 0.213657,0.1313 0.333024,0.166 0.120795,0.029 0.24462,0.037 0.371468,0.022 0.130229,-0.017 0.254499,-0.059 0.372817,-0.1278 0.118311,-0.069 0.217149,-0.1551 0.296506,-0.2597 0.07936,-0.1046 0.136386,-0.2165 0.171087,-0.3359 0.03275,-0.1228 0.04171,-0.2476 0.02701,-0.3744 -0.0167,-0.1302 -0.0593,-0.2545 -0.127786,-0.3728 -0.06848,-0.1183 -0.154044,-0.2155 -0.256689,-0.2915 -0.104603,-0.079 -0.21828,-0.1354 -0.341027,-0.1681 -0.122753,-0.033 -0.249243,-0.041 -0.379472,-0.024 -0.130228,0.017 -0.254504,0.059 -0.372816,0.1278 -0.118312,0.069 -0.217149,0.155 -0.296506,0.2596 -0.07598,0.1027 -0.13034,0.2154 -0.163084,0.3381 -0.02935,0.1208 -0.03568,0.2463 -0.01898,0.3765 0.01476,0.1269 0.05636,0.2495 0.124856,0.3678"
       id="path3171"
       style="font-size:10px;font-style:normal;font-variant:normal;font-weight:300;font-stretch:normal;text-align:center;line-height:125%;letter-spacing:0px;word-spacing:0px;writing-mode:lr-tb;text-anchor:middle;fill:#000000;fill-opacity:1;stroke:none;font-family:Josefin Slab;-inkscape-font-specification:Josefin Slab Light"
       inkscape:connector-curvature="0" />
    <path
       d="m 32.512718,3086.9985 0.386701,-0.1827 -1.742043,-3.6869 -0.381399,0.1802 -0.06758,-0.143 0.529719,-0.2503 1.809619,3.8299 0.439664,-0.2077 0.06758,0.143 -0.974686,0.4605 -0.06758,-0.143"
       id="path3173"
       style="font-size:10px;font-style:normal;font-variant:normal;font-weight:300;font-stretch:normal;text-align:center;line-height:125%;letter-spacing:0px;word-spacing:0px;writing-mode:lr-tb;text-anchor:middle;fill:#000000;fill-opacity:1;stroke:none;font-family:Josefin Slab;-inkscape-font-specification:Josefin Slab Light"
       inkscape:connector-curvature="0" />
    <path
       d="m 33.870169,3086.3695 0.39587,-0.1619 -1.54339,-3.7743 -0.390451,0.1596 -0.05987,-0.1464 0.542287,-0.2217 1.603267,3.9207 0.450099,-0.184 0.05987,0.1464 -0.997812,0.408 -0.05987,-0.1464"
       id="path3175"
       style="font-size:10px;font-style:normal;font-variant:normal;font-weight:300;font-stretch:normal;text-align:center;line-height:125%;letter-spacing:0px;word-spacing:0px;writing-mode:lr-tb;text-anchor:middle;fill:#000000;fill-opacity:1;stroke:none;font-family:Josefin Slab;-inkscape-font-specification:Josefin Slab Light"
       inkscape:connector-curvature="0" />
    <path
       d="m 36.005147,3087.0774 0.464553,-0.1437 c 0.03726,-0.2364 0.07581,-0.4752 0.11564,-0.7165 0.04101,-0.2375 0.08069,-0.4726 0.119103,-0.7053 -0.269497,-0.2764 -0.536545,-0.5515 -0.80115,-0.8254 -0.262033,-0.2787 -0.525929,-0.5569 -0.791694,-0.8344 l -0.414179,0.1281 -0.04675,-0.1511 0.968289,-0.2996 0.04675,0.1512 -0.375002,0.116 c 0.242758,0.256 0.484935,0.5102 0.726539,0.7626 0.245329,0.2512 0.485644,0.5059 0.720938,0.7643 0.04804,-0.3337 0.101772,-0.6754 0.161262,-1.025 0.0583,-0.3533 0.117234,-0.7047 0.176718,-1.0543 l -0.319033,0.099 -0.04675,-0.1511 0.878732,-0.2719 0.04675,0.1512 -0.386198,0.1194 c -0.203445,1.2323 -0.403733,2.4615 -0.600863,3.6877 l 0.386192,-0.1195 0.04675,0.1511 -1.029858,0.3186 -0.04675,-0.1511"
       id="path3177"
       style="font-size:10px;font-style:normal;font-variant:normal;font-weight:300;font-stretch:normal;text-align:center;line-height:125%;letter-spacing:0px;word-spacing:0px;writing-mode:lr-tb;text-anchor:middle;fill:#000000;fill-opacity:1;stroke:none;font-family:Josefin Slab;-inkscape-font-specification:Josefin Slab Light"
       inkscape:connector-curvature="0" />
    <path
       d="m 40.355833,3084.4445 0.452524,-0.064 -0.262144,-1.8623 -0.423512,0.06 -0.02203,-0.1566 0.545351,-0.077 0.04751,0.2537 c 0.0081,0.058 0.01746,0.1099 0.02783,0.1558 0.01037,0.046 0.01969,0.098 0.02783,0.1558 0.05841,-0.2015 0.165357,-0.3664 0.320837,-0.4948 0.158802,-0.1328 0.336556,-0.215 0.533264,-0.2467 l 0.01623,0.1575 c -0.123227,0.021 -0.237924,0.061 -0.344097,0.1194 -0.106178,0.058 -0.196637,0.1303 -0.271383,0.2157 -0.07088,0.085 -0.124376,0.1812 -0.160501,0.2889 -0.03228,0.1071 -0.04019,0.2186 -0.0239,0.3347 l 0.151074,1.0732 0.452525,-0.064 0.02203,0.1566 -1.067484,0.1503 -0.02203,-0.1567"
       id="path3179"
       style="font-size:10px;font-style:normal;font-variant:normal;font-weight:300;font-stretch:normal;text-align:center;line-height:125%;letter-spacing:0px;word-spacing:0px;writing-mode:lr-tb;text-anchor:middle;fill:#000000;fill-opacity:1;stroke:none;font-family:Josefin Slab;-inkscape-font-specification:Josefin Slab Light"
       inkscape:connector-curvature="0" />
    <path
       d="m 43.348041,3082.1827 c -0.159873,0.01 -0.304057,0.053 -0.432552,0.1308 -0.128494,0.078 -0.234297,0.176 -0.31741,0.2943 -0.07921,0.118 -0.132062,0.2522 -0.158544,0.4024 -0.02648,0.1502 -0.01582,0.3002 0.03205,0.45 0.285644,-0.134 0.567509,-0.2658 0.845583,-0.3954 0.281742,-0.1337 0.56544,-0.2676 0.85109,-0.4016 -0.08315,-0.1516 -0.197751,-0.2721 -0.343786,-0.3615 -0.142139,-0.09 -0.300941,-0.1292 -0.476405,-0.119 m 1.035846,0.556 c -0.308364,0.147 -0.616839,0.2921 -0.925426,0.4353 -0.308587,0.1431 -0.617062,0.2882 -0.925426,0.4352 0.08428,0.1712 0.207581,0.3068 0.369898,0.4069 0.165991,0.096 0.352311,0.138 0.558973,0.126 0.132578,-0.01 0.254042,-0.038 0.364403,-0.092 0.110356,-0.053 0.207998,-0.1236 0.292926,-0.2107 0.0167,0.019 0.03345,0.037 0.05021,0.056 0.0167,0.019 0.03539,0.037 0.05607,0.055 -0.09572,0.1034 -0.208279,0.1862 -0.337681,0.2485 -0.125501,0.062 -0.264289,0.097 -0.416359,0.1064 -0.159874,0.01 -0.311692,-0.011 -0.455466,-0.062 -0.1401,-0.054 -0.263784,-0.1294 -0.371058,-0.2249 -0.107274,-0.096 -0.196069,-0.2097 -0.266386,-0.3425 -0.06665,-0.137 -0.104614,-0.2854 -0.113906,-0.4453 -0.0091,-0.156 0.01154,-0.3058 0.0619,-0.4496 0.05425,-0.144 0.129091,-0.2696 0.224583,-0.3769 0.09549,-0.1073 0.209767,-0.1941 0.342843,-0.2606 0.136749,-0.07 0.285058,-0.1104 0.444926,-0.1197 0.233952,-0.014 0.442858,0.047 0.626712,0.1807 0.187749,0.1339 0.327188,0.3116 0.418315,0.5332"
       id="path3181"
       style="font-size:10px;font-style:normal;font-variant:normal;font-weight:300;font-stretch:normal;text-align:center;line-height:125%;letter-spacing:0px;word-spacing:0px;writing-mode:lr-tb;text-anchor:middle;fill:#000000;fill-opacity:1;stroke:none;font-family:Josefin Slab;-inkscape-font-specification:Josefin Slab Light"
       inkscape:connector-curvature="0" />
    <path
       d="m 44.93955,3083.0885 c 0.007,-0.156 0.04289,-0.301 0.107573,-0.435 0.06485,-0.1378 0.150288,-0.2552 0.256309,-0.352 0.110097,-0.1006 0.234748,-0.1771 0.373952,-0.2295 0.143276,-0.056 0.294907,-0.081 0.454886,-0.073 0.117052,0.01 0.227467,0.028 0.331237,0.068 0.10394,0.036 0.197516,0.085 0.280722,0.1475 0.08711,0.063 0.160114,0.1343 0.219036,0.2151 0.06281,0.081 0.109846,0.1653 0.141096,0.2527 0.0047,-0.098 0.01072,-0.195 0.01904,-0.2924 0.0083,-0.097 0.01863,-0.1966 0.03099,-0.2977 l 0.122911,0.01 -0.09176,2.0368 0.433109,0.02 -0.0071,0.158 -0.579431,-0.026 0.01242,-0.2751 0.01447,-0.3219 c -0.03896,0.084 -0.09145,0.164 -0.157395,0.2392 -0.06595,0.075 -0.14511,0.1401 -0.237491,0.1946 -0.08848,0.055 -0.186185,0.097 -0.293114,0.1275 -0.106758,0.026 -0.220617,0.037 -0.341571,0.032 -0.159979,-0.01 -0.308886,-0.043 -0.446713,-0.1081 -0.133755,-0.068 -0.251024,-0.1559 -0.351801,-0.2621 -0.09688,-0.106 -0.171509,-0.2286 -0.223881,-0.3679 -0.0522,-0.1431 -0.0747,-0.2946 -0.06749,-0.4546 m 0.163882,0.01 c -0.0062,0.1366 0.01342,0.2665 0.05868,0.3897 0.04546,0.1194 0.109078,0.2258 0.190878,0.3195 0.08587,0.09 0.186198,0.1628 0.300971,0.2188 0.118669,0.056 0.24629,0.087 0.382858,0.093 0.136562,0.01 0.266468,-0.014 0.389713,-0.059 0.123239,-0.045 0.231667,-0.1088 0.325278,-0.1906 0.09379,-0.086 0.16868,-0.186 0.224678,-0.3007 0.05618,-0.1187 0.08734,-0.2463 0.09349,-0.3829 0.0062,-0.1366 -0.01353,-0.2645 -0.05895,-0.3839 -0.04529,-0.1232 -0.110766,-0.2317 -0.196462,-0.3255 -0.0857,-0.094 -0.18789,-0.1688 -0.306559,-0.2249 -0.118675,-0.056 -0.246297,-0.087 -0.382859,-0.093 -0.136567,-0.01 -0.266474,0.013 -0.389718,0.059 -0.119337,0.045 -0.225902,0.111 -0.319689,0.1967 -0.08989,0.086 -0.162915,0.1881 -0.219089,0.3068 -0.05601,0.1148 -0.08707,0.2404 -0.09322,0.377"
       id="path3183"
       style="font-size:10px;font-style:normal;font-variant:normal;font-weight:300;font-stretch:normal;text-align:center;line-height:125%;letter-spacing:0px;word-spacing:0px;writing-mode:lr-tb;text-anchor:middle;fill:#000000;fill-opacity:1;stroke:none;font-family:Josefin Slab;-inkscape-font-specification:Josefin Slab Light"
       inkscape:connector-curvature="0" />
    <path
       d="m 48.039279,3084.2246 0.424162,0.055 0.522678,-4.044 -0.418351,-0.054 0.02027,-0.1569 0.581043,0.075 -0.542955,4.2009 0.482264,0.062 -0.02027,0.1569 -1.069119,-0.1382 0.02027,-0.1569"
       id="path3185"
       style="font-size:10px;font-style:normal;font-variant:normal;font-weight:300;font-stretch:normal;text-align:center;line-height:125%;letter-spacing:0px;word-spacing:0px;writing-mode:lr-tb;text-anchor:middle;fill:#000000;fill-opacity:1;stroke:none;font-family:Josefin Slab;-inkscape-font-specification:Josefin Slab Light"
       inkscape:connector-curvature="0" />
    <path
       d="m 49.521656,3084.4275 0.420618,0.078 0.738608,-4.0103 -0.414853,-0.076 0.02865,-0.1556 0.576186,0.1062 -0.767257,4.1658 0.478232,0.088 -0.02865,0.1555 -1.060177,-0.1952 0.02865,-0.1556"
       id="path3187"
       style="font-size:10px;font-style:normal;font-variant:normal;font-weight:300;font-stretch:normal;text-align:center;line-height:125%;letter-spacing:0px;word-spacing:0px;writing-mode:lr-tb;text-anchor:middle;fill:#000000;fill-opacity:1;stroke:none;font-family:Josefin Slab;-inkscape-font-specification:Josefin Slab Light"
       inkscape:connector-curvature="0" />
    <path
       d="m 50.934812,3086.1755 0.468466,0.1304 c 0.159206,-0.1787 0.32082,-0.3587 0.484836,-0.5401 0.162973,-0.1776 0.323538,-0.3539 0.481702,-0.5288 -0.07714,-0.3782 -0.152926,-0.7541 -0.22735,-1.1275 -0.06962,-0.3762 -0.141114,-0.7529 -0.214495,-1.1301 l -0.417659,-0.1163 0.04242,-0.1524 0.976432,0.2719 -0.04242,0.1524 -0.37816,-0.1053 c 0.06566,0.3467 0.131846,0.6915 0.198554,1.0344 0.07047,0.3439 0.134769,0.6882 0.192905,1.0328 0.220928,-0.2547 0.450955,-0.513 0.69008,-0.7748 0.240162,-0.2656 0.479809,-0.5294 0.718934,-0.7912 l -0.32171,-0.09 0.04242,-0.1524 0.886126,0.2467 -0.04242,0.1523 -0.389443,-0.1084 c -0.837674,0.9264 -1.671053,1.8519 -2.500144,2.7766 l 0.389444,0.1084 -0.04242,0.1524 -1.038517,-0.2891 0.04242,-0.1524"
       id="path3189"
       style="font-size:10px;font-style:normal;font-variant:normal;font-weight:300;font-stretch:normal;text-align:center;line-height:125%;letter-spacing:0px;word-spacing:0px;writing-mode:lr-tb;text-anchor:middle;fill:#000000;fill-opacity:1;stroke:none;font-family:Josefin Slab;-inkscape-font-specification:Josefin Slab Light"
       inkscape:connector-curvature="0" />
    <path
       d="m 56.013905,3086.3214 0.3899,0.1758 1.675934,-3.7174 -0.384558,-0.1734 0.06502,-0.1442 0.534108,0.2408 -1.740954,3.8616 0.443309,0.1999 -0.06502,0.1442 -0.982754,-0.4431 0.06502,-0.1442"
       id="path3191"
       style="font-size:10px;font-style:normal;font-variant:normal;font-weight:300;font-stretch:normal;text-align:center;line-height:125%;letter-spacing:0px;word-spacing:0px;writing-mode:lr-tb;text-anchor:middle;fill:#000000;fill-opacity:1;stroke:none;font-family:Josefin Slab;-inkscape-font-specification:Josefin Slab Light"
       inkscape:connector-curvature="0" />
    <path
       d="m 57.841,3086.1061 c 0.07469,-0.1373 0.17138,-0.2536 0.290067,-0.3491 0.118681,-0.095 0.246894,-0.1636 0.384639,-0.2042 0.143042,-0.042 0.288603,-0.056 0.436683,-0.043 0.153377,0.012 0.30039,0.057 0.441042,0.1334 0.140651,0.077 0.257791,0.1759 0.351414,0.298 0.09549,0.1187 0.162621,0.2486 0.2014,0.3898 0.04406,0.1396 0.05824,0.2851 0.04248,0.4366 -0.01236,0.1534 -0.05583,0.2987 -0.130544,0.4359 -0.07656,0.1407 -0.175898,0.2578 -0.298012,0.3514 -0.116818,0.092 -0.24581,0.1575 -0.386983,0.1963 -0.137745,0.041 -0.283306,0.055 -0.436682,0.043 -0.151514,-0.016 -0.297596,-0.062 -0.438247,-0.1385 -0.140651,-0.077 -0.258723,-0.1742 -0.354209,-0.2929 -0.0902,-0.1202 -0.157325,-0.2502 -0.201401,-0.3898 -0.04066,-0.1377 -0.05402,-0.2806 -0.04013,-0.4287 0.01576,-0.1515 0.06193,-0.2976 0.138489,-0.4382 m 0.144085,0.078 c -0.06535,0.1201 -0.104679,0.2454 -0.117967,0.376 -0.01142,0.1272 -0.0012,0.2508 0.03164,0.3708 0.03779,0.1184 0.09605,0.2279 0.17469,0.3285 0.08208,0.1025 0.183145,0.1864 0.303215,0.2518 0.116636,0.064 0.240267,0.1019 0.370888,0.1152 0.130621,0.013 0.254212,0 0.370766,-0.032 0.12185,-0.036 0.233085,-0.093 0.333703,-0.1719 0.105909,-0.08 0.191546,-0.1803 0.256907,-0.3004 0.06535,-0.12 0.10203,-0.2446 0.110021,-0.3737 0.0133,-0.1306 0.0018,-0.2568 -0.03398,-0.3787 -0.03252,-0.1199 -0.08983,-0.2312 -0.171896,-0.3337 -0.08208,-0.1025 -0.181429,-0.1854 -0.298065,-0.2489 -0.120069,-0.065 -0.245417,-0.1047 -0.376038,-0.118 -0.127194,-0.011 -0.251716,6e-4 -0.373567,0.037 -0.118417,0.038 -0.228872,0.098 -0.331353,0.1798 -0.100619,0.079 -0.183608,0.178 -0.248962,0.2981"
       id="path3193"
       style="font-size:10px;font-style:normal;font-variant:normal;font-weight:300;font-stretch:normal;text-align:center;line-height:125%;letter-spacing:0px;word-spacing:0px;writing-mode:lr-tb;text-anchor:middle;fill:#000000;fill-opacity:1;stroke:none;font-family:Josefin Slab;-inkscape-font-specification:Josefin Slab Light"
       inkscape:connector-curvature="0" />
    <path
       d="m 61.129053,3089.1772 0.3813,0.2623 0.800365,-1.1632 c 0.07106,-0.117 0.09564,-0.2423 0.07377,-0.3759 -0.01869,-0.1314 -0.09335,-0.2468 -0.224062,-0.3462 -0.102968,-0.071 -0.214894,-0.1218 -0.335777,-0.1528 -0.115459,-0.032 -0.231222,-0.043 -0.347296,-0.033 -0.112857,0.012 -0.22009,0.048 -0.321693,0.1058 -0.0994,0.055 -0.183414,0.1322 -0.252044,0.2319 l -0.61439,0.8929 0.376472,0.2591 -0.08967,0.1303 -0.888088,-0.6111 0.08967,-0.1303 0.376472,0.259 1.066048,-1.5493 -0.35234,-0.2424 0.08966,-0.1303 0.453702,0.3121 -0.136474,0.219 c -0.03322,0.048 -0.06149,0.093 -0.08484,0.1337 -0.02338,0.041 -0.05162,0.085 -0.08484,0.1336 0.170624,-0.1101 0.357724,-0.1616 0.561298,-0.1543 0.205783,0 0.400382,0.069 0.583796,0.1955 0.173753,0.1196 0.276188,0.2635 0.307309,0.4319 0.03111,0.1684 -0.0053,0.3352 -0.109728,0.5006 l -0.807003,1.1728 0.376472,0.2591 -0.08967,0.1303 -0.888095,-0.6111 0.08967,-0.1303"
       id="path3195"
       style="font-size:10px;font-style:normal;font-variant:normal;font-weight:300;font-stretch:normal;text-align:center;line-height:125%;letter-spacing:0px;word-spacing:0px;writing-mode:lr-tb;text-anchor:middle;fill:#000000;fill-opacity:1;stroke:none;font-family:Josefin Slab;-inkscape-font-specification:Josefin Slab Light"
       inkscape:connector-curvature="0" />
    <path
       d="m 65.327563,3089.9297 0.424777,0.3687 -0.103682,0.1194 -0.331858,-0.288 -1.43621,1.6549 c -0.135683,0.1563 -0.278133,0.2758 -0.427344,0.3583 -0.146258,0.085 -0.293577,0.1357 -0.441956,0.1517 -0.147992,0.022 -0.291332,0.011 -0.430027,-0.032 -0.141254,-0.04 -0.270686,-0.1082 -0.388289,-0.2051 -0.118775,-0.1134 -0.223664,-0.2458 -0.314662,-0.3972 -0.09061,-0.1458 -0.134588,-0.2978 -0.131922,-0.4558 l 0.165885,-0 c -0.0012,0.1385 0.0358,0.2716 0.111293,0.3991 0.07843,0.1301 0.16926,0.24 0.272503,0.3296 0.09734,0.084 0.206708,0.1432 0.328096,0.1762 0.124341,0.035 0.250761,0.042 0.379273,0.019 0.128892,-0.017 0.258599,-0.063 0.389109,-0.1355 0.13051,-0.073 0.252091,-0.1743 0.364731,-0.304 l 0.284174,-0.3275 c 0.03585,-0.041 0.0704,-0.081 0.103682,-0.1194 0.03621,-0.036 0.07374,-0.073 0.112535,-0.1118 -0.168304,0.087 -0.359985,0.1168 -0.575037,0.091 -0.215058,-0.026 -0.412556,-0.1176 -0.592491,-0.2737 -0.120948,-0.105 -0.215315,-0.2257 -0.283106,-0.3621 -0.06484,-0.1339 -0.103806,-0.2737 -0.116889,-0.4195 -0.0076,-0.1462 0.01131,-0.2901 0.05665,-0.4318 0.04535,-0.1416 0.120514,-0.2729 0.225474,-0.3939 0.102405,-0.118 0.220529,-0.2094 0.354385,-0.2742 0.136409,-0.068 0.27624,-0.1068 0.419498,-0.1169 0.148766,-0.011 0.293975,0.01 0.435623,0.052 0.147154,0.045 0.281202,0.12 0.402151,0.2249 0.08849,0.077 0.161039,0.1631 0.217647,0.2587 0.05916,0.093 0.101995,0.1894 0.128494,0.29 0.02947,0.1031 0.04218,0.2047 0.03814,0.3046 -0.0012,0.1025 -0.01646,0.1978 -0.04623,0.2857 0.064,-0.074 0.129478,-0.1462 0.196432,-0.2174 0.06695,-0.071 0.136656,-0.1426 0.209123,-0.2141 m -2.231373,-0.4859 c -0.0896,0.1032 -0.154911,0.2172 -0.195929,0.3419 -0.03843,0.1218 -0.05466,0.2448 -0.04869,0.3689 0.01154,0.1238 0.04488,0.2433 0.100109,0.3584 0.05818,0.1177 0.138864,0.2214 0.242113,0.311 0.103243,0.09 0.217225,0.1549 0.341952,0.1959 0.124727,0.041 0.249173,0.059 0.373344,0.053 0.126725,-0.01 0.247667,-0.041 0.362815,-0.096 0.117709,-0.058 0.221368,-0.1389 0.310972,-0.2422 0.0896,-0.1032 0.153628,-0.2157 0.192085,-0.3375 0.04101,-0.1247 0.05706,-0.2504 0.0481,-0.3772 -0.009,-0.1267 -0.04253,-0.2489 -0.100694,-0.3666 -0.05818,-0.1177 -0.13887,-0.2214 -0.242114,-0.311 -0.103243,-0.09 -0.217231,-0.1549 -0.341952,-0.1959 -0.12178,-0.038 -0.246033,-0.053 -0.372758,-0.044 -0.123778,0.012 -0.244521,0.046 -0.362235,0.1046 -0.115148,0.055 -0.217524,0.1344 -0.307128,0.2377"
       id="path3197"
       style="font-size:10px;font-style:normal;font-variant:normal;font-weight:300;font-stretch:normal;text-align:center;line-height:125%;letter-spacing:0px;word-spacing:0px;writing-mode:lr-tb;text-anchor:middle;fill:#000000;fill-opacity:1;stroke:none;font-family:Josefin Slab;-inkscape-font-specification:Josefin Slab Light"
       inkscape:connector-curvature="0" />
    <path
       d="m 67.97336,3096.0039 0.280084,0.3685 1.124091,-0.8544 c 0.104104,-0.089 0.166664,-0.2003 0.18768,-0.334 0.02338,-0.1306 -0.01148,-0.2636 -0.104515,-0.3989 -0.07564,-0.1 -0.16483,-0.1814 -0.267575,-0.2455 -0.09728,-0.064 -0.199901,-0.1081 -0.307866,-0.134 -0.107971,-0.026 -0.218924,-0.03 -0.33286,-0.012 -0.11083,0.015 -0.214073,0.057 -0.309717,0.125 l -0.886214,0.6737 0.27654,0.3638 -0.125934,0.096 -0.65235,-0.8582 0.125934,-0.096 0.280084,0.3684 1.124091,-0.8544 c 0.104104,-0.089 0.166664,-0.2003 0.187679,-0.334 0.02338,-0.1306 -0.01148,-0.2636 -0.104514,-0.3989 -0.07564,-0.099 -0.166008,-0.1829 -0.27112,-0.2502 -0.09964,-0.066 -0.206181,-0.1131 -0.319619,-0.1397 -0.111082,-0.023 -0.223963,-0.024 -0.338648,-2e-4 -0.111574,0.021 -0.215555,0.068 -0.311949,0.1415 l -0.862896,0.6559 0.276539,0.3638 -0.125934,0.096 -0.652349,-0.8582 0.12594,-0.096 0.276539,0.3638 1.497229,-1.1381 -0.25881,-0.3405 0.125934,-0.096 0.333264,0.4384 -0.198138,0.1654 c -0.04664,0.035 -0.08744,0.069 -0.122389,0.1003 -0.03498,0.032 -0.07575,0.065 -0.12239,0.1004 0.196526,-0.051 0.390322,-0.042 0.581388,0.029 0.194171,0.068 0.358621,0.191 0.493349,0.3683 0.118171,0.1554 0.170367,0.3145 0.156569,0.477 -0.01066,0.1603 -0.08008,0.3013 -0.208191,0.4232 0.191922,-0.038 0.380679,-0.022 0.566273,0.048 0.188699,0.068 0.348045,0.1869 0.478045,0.3579 0.127633,0.1679 0.179888,0.3367 0.156763,0.5064 -0.02074,0.1727 -0.106518,0.3213 -0.257264,0.4457 l -1.133418,0.8615 0.272995,0.3592 -0.12594,0.096 -0.652344,-0.8582 0.125934,-0.096"
       id="path3199"
       style="font-size:10px;font-style:normal;font-variant:normal;font-weight:300;font-stretch:normal;text-align:center;line-height:125%;letter-spacing:0px;word-spacing:0px;writing-mode:lr-tb;text-anchor:middle;fill:#000000;fill-opacity:1;stroke:none;font-family:Josefin Slab;-inkscape-font-specification:Josefin Slab Light"
       inkscape:connector-curvature="0" />
    <path
       d="m 69.632965,3096.8078 c 0.135994,-0.077 0.27961,-0.1245 0.430848,-0.1427 0.151232,-0.018 0.296043,-0.01 0.434427,0.03 0.143703,0.04 0.274705,0.1049 0.392993,0.195 0.123608,0.092 0.224824,0.2072 0.303654,0.3466 0.07882,0.1394 0.125641,0.2857 0.140458,0.4388 0.01822,0.1513 0.0064,0.297 -0.03539,0.4373 -0.0365,0.1418 -0.101515,0.2728 -0.195073,0.393 -0.09164,0.1236 -0.205455,0.2239 -0.341449,0.3008 -0.139397,0.079 -0.285673,0.1256 -0.438827,0.1404 -0.14784,0.016 -0.291906,0 -0.432212,-0.038 -0.13839,-0.038 -0.269386,-0.1034 -0.392994,-0.1951 -0.12021,-0.093 -0.219727,-0.21 -0.29855,-0.3494 -0.07883,-0.1394 -0.127346,-0.2847 -0.145561,-0.436 -0.01289,-0.1497 -0.0012,-0.2955 0.03539,-0.4373 0.03843,-0.1384 0.102698,-0.2667 0.192852,-0.385 0.09356,-0.1202 0.210037,-0.2197 0.349434,-0.2985 m 0.08075,0.1428 c -0.118998,0.067 -0.218696,0.1528 -0.299102,0.2566 -0.077,0.1019 -0.133456,0.2123 -0.169359,0.3313 -0.03058,0.1205 -0.03914,0.2443 -0.02566,0.3713 0.01541,0.1303 0.05677,0.255 0.124036,0.374 0.06537,0.1156 0.149949,0.2136 0.253748,0.294 0.103794,0.08 0.214238,0.1369 0.331337,0.1694 0.122413,0.034 0.247116,0.044 0.374111,0.031 0.132308,-0.012 0.257967,-0.052 0.376964,-0.119 0.118991,-0.067 0.21603,-0.1535 0.291116,-0.2588 0.0804,-0.1038 0.137593,-0.2169 0.171574,-0.3393 0.03591,-0.1191 0.04617,-0.2438 0.03076,-0.3742 -0.01541,-0.1303 -0.05577,-0.2533 -0.121147,-0.3689 -0.06729,-0.119 -0.152838,-0.2187 -0.256632,-0.2991 -0.101878,-0.077 -0.214026,-0.1325 -0.336439,-0.1665 -0.120497,-0.031 -0.245939,-0.038 -0.376326,-0.023 -0.126994,0.014 -0.249987,0.054 -0.368984,0.1212"
       id="path3201"
       style="font-size:10px;font-style:normal;font-variant:normal;font-weight:300;font-stretch:normal;text-align:center;line-height:125%;letter-spacing:0px;word-spacing:0px;writing-mode:lr-tb;text-anchor:middle;fill:#000000;fill-opacity:1;stroke:none;font-family:Josefin Slab;-inkscape-font-specification:Josefin Slab Light"
       inkscape:connector-curvature="0" />
    <path
       d="m 73.483037,3098.6674 0.06891,0.1488 -1.297317,0.6005 0.297766,0.6433 -0.143557,0.066 -0.297766,-0.6434 -1.706715,0.79 0.206709,0.4466 -0.143552,0.066 -0.275619,-0.5954 1.850272,-0.8564 -0.216557,-0.4679 0.143557,-0.066 0.216557,0.4679 1.297317,-0.6004"
       id="path3203"
       style="font-size:10px;font-style:normal;font-variant:normal;font-weight:300;font-stretch:normal;text-align:center;line-height:125%;letter-spacing:0px;word-spacing:0px;writing-mode:lr-tb;text-anchor:middle;fill:#000000;fill-opacity:1;stroke:none;font-family:Josefin Slab;-inkscape-font-specification:Josefin Slab Light"
       inkscape:connector-curvature="0" />
    <path
       d="m 74.286115,3100.5306 0.05921,0.153 -1.333149,0.516 0.255893,0.6611 -0.147517,0.057 -0.255899,-0.6611 -1.753861,0.6789 0.17765,0.4589 -0.147524,0.057 -0.236864,-0.612 1.901384,-0.7359 -0.186109,-0.4808 0.147523,-0.057 0.186104,0.4808 1.333155,-0.516"
       id="path3205"
       style="font-size:10px;font-style:normal;font-variant:normal;font-weight:300;font-stretch:normal;text-align:center;line-height:125%;letter-spacing:0px;word-spacing:0px;writing-mode:lr-tb;text-anchor:middle;fill:#000000;fill-opacity:1;stroke:none;font-family:Josefin Slab;-inkscape-font-specification:Josefin Slab Light"
       inkscape:connector-curvature="0" />
    <path
       d="m 72.425824,3102.7261 c 0.149726,-0.045 0.300338,-0.059 0.451822,-0.043 0.151484,0.016 0.290389,0.058 0.416716,0.1264 0.131177,0.071 0.244363,0.1636 0.33955,0.2779 0.100044,0.1169 0.172933,0.2521 0.218666,0.4056 0.04576,0.1534 0.05873,0.3065 0.03902,0.4591 -0.016,0.1514 -0.06002,0.2909 -0.132086,0.4184 -0.06721,0.13 -0.159827,0.2432 -0.277846,0.3395 -0.116911,0.1001 -0.250233,0.1724 -0.399954,0.217 -0.153476,0.046 -0.306513,0.059 -0.45911,0.039 -0.147746,-0.017 -0.285333,-0.062 -0.412773,-0.1337 -0.126321,-0.068 -0.239506,-0.161 -0.33955,-0.2779 -0.09631,-0.118 -0.16732,-0.2538 -0.213054,-0.4072 -0.0457,-0.1535 -0.0606,-0.306 -0.04458,-0.4575 0.02086,-0.1488 0.06488,-0.2883 0.132086,-0.4184 0.06833,-0.1263 0.159622,-0.237 0.273908,-0.3322 0.118019,-0.096 0.253767,-0.1673 0.407237,-0.2131 m 0.04687,0.1572 c -0.131014,0.039 -0.247292,0.1002 -0.348831,0.1835 -0.09779,0.082 -0.177467,0.1771 -0.239025,0.2852 -0.05671,0.1106 -0.09264,0.2293 -0.107842,0.3561 -0.01406,0.1305 -0.0018,0.2613 0.03744,0.3923 0.03791,0.1273 0.0985,0.2417 0.181745,0.3432 0.08324,0.1016 0.178299,0.1812 0.285192,0.2391 0.111744,0.06 0.231017,0.098 0.357812,0.1134 0.131658,0.018 0.262988,0.01 0.394002,-0.032 0.131008,-0.039 0.244855,-0.1015 0.341536,-0.1874 0.101538,-0.083 0.18253,-0.1807 0.242969,-0.2924 0.06155,-0.108 0.09937,-0.2273 0.113461,-0.3579 0.01406,-0.1305 0.0023,-0.2594 -0.03574,-0.3867 -0.03902,-0.131 -0.100179,-0.2473 -0.183414,-0.3488 -0.08213,-0.098 -0.179061,-0.1769 -0.290811,-0.2373 -0.110631,-0.057 -0.231216,-0.092 -0.361755,-0.1062 -0.126796,-0.015 -0.2557,-0 -0.386708,0.036"
       id="path3207"
       style="font-size:10px;font-style:normal;font-variant:normal;font-weight:300;font-stretch:normal;text-align:center;line-height:125%;letter-spacing:0px;word-spacing:0px;writing-mode:lr-tb;text-anchor:middle;fill:#000000;fill-opacity:1;stroke:none;font-family:Josefin Slab;-inkscape-font-specification:Josefin Slab Light"
       inkscape:connector-curvature="0" />
    <path
       d="m 72.846606,3108.9757 0.05648,0.4593 1.401404,-0.1723 c 0.134728,-0.025 0.244826,-0.089 0.330299,-0.1941 0.08595,-0.1011 0.122788,-0.2335 0.11052,-0.3973 -0.01523,-0.1241 -0.05138,-0.2416 -0.108305,-0.3527 -0.05261,-0.1076 -0.121206,-0.2015 -0.205824,-0.2816 -0.08415,-0.076 -0.181657,-0.1331 -0.292522,-0.1706 -0.106993,-0.038 -0.220571,-0.05 -0.340746,-0.035 l -1.075768,0.1323 0.05578,0.4535 -0.157003,0.019 -0.131594,-1.07 0.157003,-0.019 0.05578,0.4536 4.047201,-0.4978 -0.0522,-0.4245 0.157003,-0.019 0.07223,0.5873 -2.488795,0.3061 -0.26382,0.015 c 0.196093,0.059 0.358662,0.1645 0.487713,0.3178 0.133398,0.1568 0.213686,0.3456 0.240865,0.5666 0.02572,0.2093 -0.01406,0.3815 -0.119472,0.5165 -0.105399,0.1349 -0.254534,0.2182 -0.44741,0.2498 l -1.413033,0.1738 0.05577,0.4535 -0.157008,0.019 -0.131594,-1.07 0.157009,-0.019"
       id="path3209"
       style="font-size:10px;font-style:normal;font-variant:normal;font-weight:300;font-stretch:normal;text-align:center;line-height:125%;letter-spacing:0px;word-spacing:0px;writing-mode:lr-tb;text-anchor:middle;fill:#000000;fill-opacity:1;stroke:none;font-family:Josefin Slab;-inkscape-font-specification:Josefin Slab Light"
       inkscape:connector-curvature="0" />
    <path
       d="m 74.943368,3111.5736 c -0.0029,-0.1601 -0.04119,-0.3059 -0.114064,-0.4373 -0.0729,-0.1314 -0.166852,-0.2408 -0.281865,-0.3284 -0.114931,-0.084 -0.246941,-0.1417 -0.396023,-0.1739 -0.149088,-0.032 -0.299394,-0.027 -0.450925,0.015 0.122905,0.2906 0.243777,0.5773 0.362628,0.8601 0.122823,0.2867 0.245687,0.5753 0.368592,0.8659 0.154747,-0.077 0.27955,-0.1871 0.374421,-0.3296 0.09494,-0.1386 0.140687,-0.2958 0.137236,-0.4715 m -0.595379,1.0137 c -0.135079,-0.3138 -0.268208,-0.6276 -0.39938,-0.9415 -0.131177,-0.3138 -0.2643,-0.6276 -0.39938,-0.9414 -0.174274,0.078 -0.314545,0.1956 -0.420823,0.354 -0.102294,0.1622 -0.151408,0.3467 -0.147342,0.5537 0.0023,0.1328 0.02847,0.2553 0.07754,0.3677 0.0491,0.1123 0.115511,0.2126 0.19928,0.3008 -0.01922,0.016 -0.03843,0.032 -0.05765,0.048 -0.01922,0.016 -0.03838,0.034 -0.05753,0.054 -0.09962,-0.1 -0.178071,-0.2152 -0.235352,-0.3469 -0.05718,-0.1278 -0.0873,-0.2679 -0.09029,-0.4202 -0.0029,-0.1601 0.0232,-0.311 0.07901,-0.4527 0.05979,-0.1379 0.139462,-0.2586 0.239003,-0.3622 0.09954,-0.1035 0.217032,-0.1878 0.352486,-0.253 0.139433,-0.061 0.2892,-0.094 0.449308,-0.097 0.156206,-0 0.305171,0.023 0.446906,0.079 0.141812,0.06 0.264476,0.1393 0.368007,0.2389 0.103524,0.099 0.185916,0.2171 0.247181,0.3526 0.06524,0.1393 0.09943,0.2891 0.102575,0.4492 0.0047,0.2343 -0.06362,0.4407 -0.204653,0.6193 -0.140961,0.1824 -0.323924,0.315 -0.548883,0.3975"
       id="path3211"
       style="font-size:10px;font-style:normal;font-variant:normal;font-weight:300;font-stretch:normal;text-align:center;line-height:125%;letter-spacing:0px;word-spacing:0px;writing-mode:lr-tb;text-anchor:middle;fill:#000000;fill-opacity:1;stroke:none;font-family:Josefin Slab;-inkscape-font-specification:Josefin Slab Light"
       inkscape:connector-curvature="0" />
    <path
       d="m 73.014787,3113.0456 -0.02847,0.4561 1.877012,0.1171 0.02666,-0.4269 0.157882,0.01 -0.03427,0.5496 -0.258014,-0 c -0.05847,-0 -0.111223,-0.01 -0.158245,-0 -0.04705,0 -0.09977,-3e-4 -0.158245,-0 0.185664,0.098 0.325765,0.2356 0.420319,0.4137 0.0982,0.1822 0.143047,0.3729 0.134541,0.5719 l -0.157513,-0.016 c 0.0041,-0.125 -0.01207,-0.2453 -0.04792,-0.361 -0.0358,-0.1158 -0.0881,-0.2188 -0.15681,-0.3092 -0.06896,-0.086 -0.152532,-0.1582 -0.250725,-0.2152 -0.09843,-0.053 -0.206129,-0.083 -0.32307,-0.091 l -1.081767,-0.068 -0.02847,0.456 -0.157876,-0.01 0.06715,-1.0759 0.157876,0.01"
       id="path3213"
       style="font-size:10px;font-style:normal;font-variant:normal;font-weight:300;font-stretch:normal;text-align:center;line-height:125%;letter-spacing:0px;word-spacing:0px;writing-mode:lr-tb;text-anchor:middle;fill:#000000;fill-opacity:1;stroke:none;font-family:Josefin Slab;-inkscape-font-specification:Josefin Slab Light"
       inkscape:connector-curvature="0" />
    <path
       d="m 74.629555,3116.431 c 0.02303,-0.1585 0.0093,-0.3085 -0.04124,-0.45 -0.0505,-0.1415 -0.125349,-0.2648 -0.224543,-0.37 -0.09975,-0.1013 -0.220547,-0.18 -0.362376,-0.2361 -0.141835,-0.056 -0.290934,-0.076 -0.447293,-0.059 0.07389,0.3067 0.146399,0.6093 0.217547,0.9077 0.07444,0.3029 0.148608,0.6077 0.222498,0.9144 0.16527,-0.051 0.30632,-0.139 0.423149,-0.2642 0.116267,-0.1212 0.187024,-0.2688 0.212269,-0.4428 m -0.752681,0.9031 c -0.08212,-0.3316 -0.162305,-0.6629 -0.240554,-0.9939 -0.07825,-0.3311 -0.158433,-0.6624 -0.240549,-0.994 -0.184598,0.048 -0.342234,0.1417 -0.472902,0.2806 -0.127363,0.1434 -0.205912,0.3175 -0.235645,0.5223 -0.0191,0.1314 -0.01353,0.2566 0.01658,0.3754 0.03011,0.1188 0.0793,0.2286 0.147577,0.3293 -0.02156,0.013 -0.04312,0.025 -0.06471,0.038 -0.02156,0.013 -0.04341,0.027 -0.06555,0.044 -0.08205,-0.1145 -0.140593,-0.2414 -0.175634,-0.3807 -0.03562,-0.1354 -0.04248,-0.2785 -0.02056,-0.4292 0.02303,-0.1585 0.07359,-0.3031 0.151765,-0.4339 0.08148,-0.1263 0.179764,-0.2324 0.294848,-0.3183 0.115084,-0.086 0.244756,-0.15 0.389022,-0.1922 0.147564,-0.038 0.300589,-0.045 0.459069,-0.022 0.154612,0.022 0.297285,0.073 0.428029,0.1509 0.13017,0.082 0.238217,0.1806 0.32413,0.2957 0.08591,0.1151 0.148045,0.2445 0.18639,0.3882 0.04166,0.1481 0.05097,0.3014 0.028,0.4599 -0.03369,0.2319 -0.134622,0.4245 -0.302886,0.5777 -0.168826,0.157 -0.370941,0.2579 -0.606346,0.3027"
       id="path3215"
       style="font-size:10px;font-style:normal;font-variant:normal;font-weight:300;font-stretch:normal;text-align:center;line-height:125%;letter-spacing:0px;word-spacing:0px;writing-mode:lr-tb;text-anchor:middle;fill:#000000;fill-opacity:1;stroke:none;font-family:Josefin Slab;-inkscape-font-specification:Josefin Slab Light"
       inkscape:connector-curvature="0" />
    <path
       transform="matrix(0.14178934,0.44552642,-0.44552642,0.14178934,3.8784081,2954.4611)"
       d="m 407.50222,18.428949 a 59.576347,59.576347 0 1 1 -119.15269,0 59.576347,59.576347 0 1 1 119.15269,0 z"
       sodipodi:ry="59.576347"
       sodipodi:rx="59.576347"
       sodipodi:cy="18.428949"
       sodipodi:cx="347.92587"
       id="path3803"
       style="fill:none;stroke:#000000;stroke-width:0.0934802;stroke-linecap:butt;stroke-linejoin:miter;stroke-miterlimit:4;stroke-opacity:1;stroke-dasharray:none;stroke-dashoffset:0"
       sodipodi:type="arc" />
    <path
       style="font-size:medium;font-style:normal;font-variant:normal;font-weight:normal;font-stretch:normal;text-indent:0;text-align:start;text-decoration:none;line-height:normal;letter-spacing:normal;word-spacing:normal;text-transform:none;direction:ltr;block-progression:tb;writing-mode:lr-tb;text-anchor:start;baseline-shift:baseline;color:#000000;fill:#000000;fill-opacity:1;stroke:none;stroke-width:5;marker:none;visibility:visible;display:inline;overflow:visible;enable-background:accumulate;font-family:Sans;-inkscape-font-specification:Sans"
       d="m 45.006558,3085.8916 c -14.451708,0 -26.192614,11.7409 -26.192614,26.1926 0,14.4517 11.740906,26.1926 26.192614,26.1926 14.451708,0 26.179498,-11.7409 26.179498,-26.1926 0,-14.4517 -11.72779,-26.1926 -26.179498,-26.1926 z m 0,2.0986 c 13.317568,0 24.080938,10.7765 24.080938,24.094 0,13.3176 -10.76337,24.0941 -24.080938,24.0941 -13.317564,0 -24.094057,-10.7765 -24.094057,-24.0941 0,-13.3175 10.776493,-24.094 24.094057,-24.094 z"
       id="path2998"
       inkscape:connector-curvature="0" />
    <path
       inkscape:connector-curvature="0"
       id="path3860"
       d="m 34.144368,3091.9298 c -11.130992,5.9954 -15.294226,19.8791 -9.298824,31.0101 5.995386,11.1309 19.879045,15.2941 31.010054,9.2988 11.131016,-5.9954 15.294267,-19.8791 9.298865,-31.0101 -5.995397,-11.131 -19.87908,-15.2942 -31.01009,-9.2988 z"
       style="fill:none;stroke:#000000;stroke-width:0.03033436;stroke-linecap:butt;stroke-linejoin:miter;stroke-miterlimit:4;stroke-opacity:1;stroke-dasharray:none;stroke-dashoffset:0" />
    <path
       inkscape:connector-curvature="0"
       id="path3222"
       style="font-size:18.84976768px;font-style:normal;font-variant:normal;font-weight:300;font-stretch:normal;text-align:center;line-height:125%;letter-spacing:0px;word-spacing:0px;writing-mode:lr-tb;text-anchor:middle;fill:#000000;fill-opacity:1;stroke:none;font-family:Josefin Slab;-inkscape-font-specification:Josefin Slab Light"
       d="m 49.379548,3134.3588 2.46121,-0.6051 -0.213449,-0.8681 0.215054,-0.053 0.266323,1.0832 -3.225853,0.7931 c 0.258899,-0.4127 0.508486,-0.8176 0.748761,-1.2145 0.24027,-0.3969 0.445334,-0.7768 0.615181,-1.1395 0.175161,-0.364 0.302483,-0.7051 0.381974,-1.0231 0.07949,-0.3179 0.08855,-0.6017 0.0272,-0.8513 -0.06789,-0.2761 -0.164504,-0.4973 -0.289846,-0.6636 -0.125346,-0.1662 -0.262789,-0.2901 -0.412333,-0.3716 -0.149549,-0.082 -0.301882,-0.1285 -0.457,-0.141 -0.149814,-0.014 -0.288441,-0.01 -0.41588,0.026 -0.249573,0.061 -0.445569,0.1574 -0.587985,0.2881 -0.137108,0.1295 -0.237133,0.2723 -0.300076,0.4286 -0.05894,0.1496 -0.08806,0.306 -0.08738,0.4691 0.006,0.1618 0.02467,0.3065 0.056,0.4339 0.09008,0.3664 0.269386,0.6377 0.537927,0.8138 l -0.112039,0.1627 c -0.15216,-0.092 -0.286295,-0.214 -0.402412,-0.3657 -0.112114,-0.1582 -0.194281,-0.3436 -0.246498,-0.556 -0.05222,-0.2123 -0.06932,-0.4193 -0.05129,-0.6209 0.01801,-0.2015 0.07114,-0.3863 0.159326,-0.5544 0.0935,-0.1693 0.220724,-0.316 0.381686,-0.4401 0.160958,-0.124 0.360913,-0.2154 0.599865,-0.2742 0.2124,-0.052 0.41601,-0.06 0.610826,-0.023 0.20012,0.035 0.381529,0.1089 0.544219,0.2209 0.161384,0.1068 0.300089,0.2472 0.416119,0.4214 0.116025,0.1742 0.201456,0.3728 0.256288,0.5958 0.07311,0.2974 0.07453,0.6124 0.0044,0.945 -0.07157,0.3273 -0.186274,0.6624 -0.344108,1.0053 -0.152524,0.3415 -0.331601,0.6896 -0.537226,1.0443 -0.20693,0.3493 -0.40655,0.694 -0.598855,1.0341" />
    <path
       inkscape:connector-curvature="0"
       id="path3224"
       style="font-size:18.84976768px;font-style:normal;font-variant:normal;font-weight:300;font-stretch:normal;text-align:center;line-height:125%;letter-spacing:0px;word-spacing:0px;writing-mode:lr-tb;text-anchor:middle;fill:#000000;fill-opacity:1;stroke:none;font-family:Josefin Slab;-inkscape-font-specification:Josefin Slab Light"
       d="m 51.595327,3131.3193 c -0.123641,-0.2622 -0.213549,-0.5553 -0.269726,-0.8795 -0.05851,-0.3291 -0.06332,-0.6533 -0.0144,-0.9726 0.04889,-0.3193 0.163295,-0.6151 0.343199,-0.8874 0.177575,-0.2773 0.444402,-0.4999 0.800485,-0.6678 0.346188,-0.1633 0.681414,-0.2217 1.00568,-0.1751 0.326871,0.039 0.626595,0.1427 0.899166,0.3104 0.277509,0.1654 0.519703,0.3776 0.726586,0.6367 0.209484,0.2519 0.377217,0.5113 0.503194,0.7784 0.165627,0.3512 0.262719,0.7044 0.291282,1.0597 0.03116,0.3481 0.0077,0.6766 -0.07026,0.9854 -0.08034,0.3039 -0.214993,0.576 -0.403948,0.8163 -0.184016,0.238 -0.409552,0.4199 -0.67661,0.5459 -0.267062,0.1259 -0.552087,0.1818 -0.855074,0.1675 -0.298044,-0.017 -0.587406,-0.092 -0.868093,-0.2253 -0.283018,-0.1386 -0.547609,-0.3342 -0.793767,-0.5869 -0.246162,-0.2527 -0.452056,-0.5546 -0.617692,-0.9057 m 0.211634,-0.1089 c 0.160967,0.3412 0.354921,0.6306 0.581859,0.8682 0.229548,0.2303 0.473753,0.4083 0.732604,0.5341 0.261461,0.1185 0.525351,0.1845 0.791665,0.1979 0.263981,0.01 0.509721,-0.041 0.73722,-0.1482 0.227495,-0.1073 0.423077,-0.2631 0.58675,-0.4672 0.16628,-0.2115 0.284368,-0.4546 0.35426,-0.7294 0.07483,-0.2772 0.09886,-0.5787 0.07208,-0.9046 -0.0268,-0.326 -0.119493,-0.6571 -0.278123,-0.9934 -0.153974,-0.3264 -0.338316,-0.6083 -0.553026,-0.8456 -0.214715,-0.2372 -0.449024,-0.4199 -0.702928,-0.5481 -0.251297,-0.1354 -0.512571,-0.2086 -0.783832,-0.2197 -0.273594,-0.016 -0.541448,0.038 -0.803562,0.1614 -0.262119,0.1236 -0.477622,0.2948 -0.646521,0.5135 -0.166279,0.2115 -0.280725,0.4559 -0.343342,0.7333 -0.06494,0.2725 -0.07661,0.5682 -0.03498,0.8871 0.03929,0.314 0.135916,0.6343 0.289881,0.9607" />
    <path
       inkscape:connector-curvature="0"
       id="path3226"
       style="font-size:18.84976768px;font-style:normal;font-variant:normal;font-weight:300;font-stretch:normal;text-align:center;line-height:125%;letter-spacing:0px;word-spacing:0px;writing-mode:lr-tb;text-anchor:middle;fill:#000000;fill-opacity:1;stroke:none;font-family:Josefin Slab;-inkscape-font-specification:Josefin Slab Light"
       d="m 57.256507,3131.1661 0.543257,-0.368 -2.7418,-4.0473 -0.706238,0.4785 -0.124206,-0.1834 0.896377,-0.6072 2.86601,4.2306 0.543258,-0.368 0.12421,0.1833 -1.276658,0.8649 -0.12421,-0.1834" />
    <path
       inkscape:connector-curvature="0"
       id="path3228"
       style="font-size:18.84976768px;font-style:normal;font-variant:normal;font-weight:300;font-stretch:normal;text-align:center;line-height:125%;letter-spacing:0px;word-spacing:0px;writing-mode:lr-tb;text-anchor:middle;fill:#000000;fill-opacity:1;stroke:none;font-family:Josefin Slab;-inkscape-font-specification:Josefin Slab Light"
       d="m 57.808411,3124.1772 0.502916,0.5516 -0.163643,0.1492 -0.353703,-0.3879 -1.406124,1.2821 1.331899,1.4607 c 0.05134,-0.106 0.108201,-0.2059 0.170587,-0.2998 0.06275,-0.1016 0.140589,-0.1948 0.233521,-0.2796 0.169705,-0.1547 0.360804,-0.2698 0.573296,-0.3451 0.212491,-0.075 0.426888,-0.1081 0.643187,-0.098 0.212613,0.01 0.419408,0.054 0.620377,0.1447 0.205011,0.087 0.384889,0.2152 0.539633,0.3849 0.158425,0.1737 0.273298,0.3687 0.344617,0.5849 0.07167,0.2084 0.102518,0.4208 0.09255,0.6371 -0.01,0.2163 -0.06226,0.4268 -0.15685,0.6314 -0.0946,0.2047 -0.226742,0.3844 -0.396446,0.5391 -0.169709,0.1548 -0.354921,0.2682 -0.555646,0.3402 -0.20073,0.072 -0.407399,0.1051 -0.620016,0.099 l 0.02228,-0.2313 c 0.177676,0.01 0.35107,-0.017 0.520186,-0.075 0.173151,-0.062 0.33044,-0.157 0.47186,-0.286 0.149501,-0.1363 0.265135,-0.2935 0.346893,-0.4717 0.08211,-0.1858 0.127443,-0.3715 0.135998,-0.5569 0.0089,-0.1931 -0.01732,-0.3801 -0.07864,-0.561 -0.06098,-0.1886 -0.157782,-0.3556 -0.290416,-0.5011 -0.132639,-0.1454 -0.28821,-0.2552 -0.466721,-0.3292 -0.174469,-0.078 -0.356422,-0.119 -0.54586,-0.1239 -0.1854,-0.01 -0.370738,0.023 -0.556012,0.096 -0.18492,0.065 -0.352131,0.1657 -0.501636,0.302 -0.14142,0.1289 -0.248612,0.2711 -0.321576,0.4264 -0.07665,0.1513 -0.11432,0.2967 -0.113006,0.4361 l -1.762969,-1.9335 1.739476,-1.5861" />
  </g>
</svg>
