<?xml version="1.0" encoding="UTF-8" standalone="no"?>
<!-- Created with Inkscape (http://www.inkscape.org/) -->

<svg
   xmlns:dc="http://purl.org/dc/elements/1.1/"
   xmlns:cc="http://creativecommons.org/ns#"
   xmlns:rdf="http://www.w3.org/1999/02/22-rdf-syntax-ns#"
   xmlns:svg="http://www.w3.org/2000/svg"
   xmlns="http://www.w3.org/2000/svg"
   xmlns:xlink="http://www.w3.org/1999/xlink"
   xmlns:sodipodi="http://sodipodi.sourceforge.net/DTD/sodipodi-0.dtd"
   xmlns:inkscape="http://www.inkscape.org/namespaces/inkscape"
   width="540"
   height="180"
   id="svg2"
   version="1.1"
   inkscape:version="0.48.5 r10040"
   sodipodi:docname="jlogoideas.svg"
   inkscape:export-filename="/Users/ahagen/Desktop/jlogoideas.png"
   inkscape:export-xdpi="300"
   inkscape:export-ydpi="300">
  <defs
     id="defs4" />
  <sodipodi:namedview
     id="base"
     pagecolor="#ffffff"
     bordercolor="#666666"
     borderopacity="1.0"
     inkscape:pageopacity="0.0"
     inkscape:pageshadow="2"
     inkscape:zoom="2.0981481"
     inkscape:cx="270"
     inkscape:cy="90"
     inkscape:document-units="px"
     inkscape:current-layer="layer1"
     showgrid="false"
     units="in"
     inkscape:window-width="1616"
     inkscape:window-height="1088"
     inkscape:window-x="0"
     inkscape:window-y="0"
     inkscape:window-maximized="0" />
  <metadata
     id="metadata7">
    <rdf:RDF>
      <cc:Work
         rdf:about="">
        <dc:format>image/svg+xml</dc:format>
        <dc:type
           rdf:resource="http://purl.org/dc/dcmitype/StillImage" />
        <dc:title></dc:title>
      </cc:Work>
    </rdf:RDF>
  </metadata>
  <g
     inkscape:label="Layer 1"
     inkscape:groupmode="layer"
     id="layer1"
     transform="translate(0,-872.35975)">
    <path
       inkscape:connector-curvature="0"
       id="path2990"
       style="font-size:98.23390961px;font-style:normal;font-variant:normal;font-weight:normal;font-stretch:normal;text-align:start;line-height:125%;letter-spacing:0px;word-spacing:0px;writing-mode:lr-tb;text-anchor:start;fill:#000000;fill-opacity:1;stroke:none;font-family:Seaweed Script;-inkscape-font-specification:Seaweed Script"
       d="m 110.05357,923.89601 c 0.31976,-0.38369 0.51162,-0.63951 0.57559,-0.76746 0.0639,-0.19182 0.12789,-0.41566 0.19186,-0.67152 0.51162,-0.25577 0.99128,-0.44763 1.43897,-0.57559 0.51162,-0.12786 0.99128,-0.3517 1.43898,-0.67152 0.95929,-0.6395 1.63081,-1.0552 2.01456,-1.24711 0.44766,-0.25577 0.86336,-0.44763 1.24711,-0.57559 0.44766,0.25587 0.7994,0.44773 1.05524,0.57559 0.2558,0.12796 0.51162,0.25586 0.76745,0.38373 0.12789,0.38377 0.28778,0.7675 0.47966,1.15118 0.2558,0.38377 0.22382,0.86342 -0.0959,1.43897 -0.70352,0.44772 -1.08724,0.83145 -1.15118,1.15118 -2e-5,0.31981 0.032,0.57563 0.0959,0.76745 -0.19188,0.31981 -0.38374,0.63958 -0.57559,0.95932 -0.19188,0.31981 -0.38374,0.63958 -0.57558,0.95931 -0.63957,0.31981 -1.05527,0.67156 -1.24711,1.05525 -0.19189,0.38376 -0.4477,0.73551 -0.76746,1.05525 -0.4477,0.12794 -0.83142,0.22387 -1.15118,0.28779 -0.31978,0.064 -0.73548,0.12795 -1.2471,0.19186 -1.1512,-0.19182 -1.95062,-0.79939 -2.39829,-1.8227 -0.25583,-0.83136 -0.28781,-2.0465 -0.0959,-3.64539 m -6.71521,35.39874 c 0.44767,-0.19186 0.92733,-0.38372 1.43897,-0.57559 0.51163,-0.25581 0.99129,-0.51163 1.43898,-0.76745 1.02326,-0.51163 1.79071,-0.95931 2.30236,-1.34304 0.57557,-0.38372 1.11918,-0.76745 1.63083,-1.15118 0.51162,-0.38372 1.02326,-0.76745 1.53491,-1.15118 0.57557,-0.38372 1.24709,-0.76744 2.01456,-1.15118 0.19184,-0.25581 0.41568,-0.44767 0.67151,-0.57559 0.31976,-0.19185 0.60755,-0.44767 0.86339,-0.76745 0.63952,-0.51162 1.0872,-0.89535 1.34304,-1.15118 0.31975,-0.2558 0.57557,-0.47964 0.76745,-0.67152 0.2558,-0.19185 0.54359,-0.41569 0.86339,-0.67152 0.31975,-0.2558 0.83138,-0.60755 1.5349,-1.05525 0.89534,-1.02325 1.91861,-1.91861 3.06981,-2.68608 1.15115,-0.83139 2.17442,-1.72675 3.06981,-2.68609 0.57556,-0.12788 0.95928,0.096 1.15118,0.67152 0.25579,0.51166 0.28776,0.95934 0.0959,1.34305 -0.12794,0.31979 -0.35178,0.57561 -0.67152,0.76745 -0.25585,0.12793 -0.51167,0.35177 -0.76745,0.67152 0.31974,0.89538 0.22381,1.5669 -0.2878,2.01456 -0.44771,0.4477 -0.92736,0.89538 -1.43897,1.34304 -0.38375,0.51165 -0.7355,0.83143 -1.05525,0.95932 -0.76748,1.08724 -1.69481,1.9826 -2.78201,2.68608 -1.0233,0.63956 -2.07854,1.34305 -3.16574,2.1105 -0.70352,0.51164 -1.18318,0.89537 -1.43898,1.15118 -0.25583,0.19187 -0.47967,0.35175 -0.67152,0.47965 -0.12793,0.064 -0.35177,0.19187 -0.67152,0.38373 -0.31979,0.12792 -0.92735,0.41571 -1.82269,0.86338 -0.95933,0.70351 -1.95062,1.37503 -2.97388,2.01457 -0.95933,0.57559 -1.9826,1.08722 -3.06981,1.5349 -0.83142,0.51164 -1.66282,1.05525 -2.49422,1.63084 -0.76746,0.57559 -1.56689,1.21513 -2.39829,1.91863 -0.19187,0.19186 -0.44768,0.38372 -0.76745,0.57559 -0.25582,0.25581 -0.44769,0.47965 -0.57559,0.67152 -0.447686,0.63954 -0.767457,1.31106 -0.959318,2.01456 -0.191865,0.76745 -0.511636,1.47095 -0.959315,2.1105 -0.255819,0.89535 -0.511636,1.72676 -0.767452,2.49422 -0.255818,0.76744 -0.511636,1.59885 -0.767453,2.49422 -0.127908,0.70348 -0.255817,1.375 -0.383726,2.01456 -0.127908,0.63953 -0.319771,1.31105 -0.575589,2.01456 -0.319771,0.51162 -0.511634,0.83139 -0.57559,0.95932 -0.06395,0.19184 -0.159884,0.44766 -0.287794,0.76745 -0.511633,0.83139 -0.76745,1.375 -0.767453,1.63084 -0.06395,0.31975 -0.159883,0.63952 -0.287794,0.95931 -0.127906,0.44766 -0.287792,0.86337 -0.479658,1.24711 -0.19186,0.44766 -0.351745,0.92732 -0.479658,1.43897 -0.127905,0.44766 -0.223836,0.83139 -0.287795,1.15118 -0.127904,0.38371 -0.383721,0.63952 -0.767452,0.76746 -0.127904,0.31974 -0.255812,0.60754 -0.383726,0.86338 -0.127904,0.31975 -0.287789,0.63952 -0.479658,0.95931 -0.319766,0.31975 -0.639537,0.63952 -0.959316,0.95932 -0.383719,0.3837 -0.607559,0.76743 -0.67152,1.15118 -0.191856,0.83138 -0.575582,1.43894 -1.151179,1.8227 -0.57558,0.44769 -0.927329,0.99129 -1.055247,1.63079 -1.023259,1.0872 -2.014551,2.2064 -2.973878,3.3576 -0.959302,1.15118 -2.078502,2.17448 -3.357605,3.06988 -0.191846,0.4476 -0.447664,0.7994 -0.767452,1.0552 -0.383709,0.2558 -0.671503,0.6395 -0.863384,1.1512 -0.319754,0.1918 -0.575571,0.2877 -0.767452,0.2878 -0.255799,0.064 -0.543594,0.1278 -0.863384,0.1918 -1.151159,0.1919 -1.886633,0.064 -2.206426,-0.3837 -0.383704,-0.3837 -0.799407,-0.7355 -1.24711,-1.0552 -0.511612,-1.535 -0.959292,-3.1978 -1.343042,-4.98848 -0.383702,-1.7268 -0.607542,-3.4855 -0.671521,-5.27621 -0.127884,-0.3198 -0.159861,-0.63957 -0.09593,-0.95931 0.06398,-0.3198 0.06398,-0.67155 0,-1.05525 -0.06393,-0.25584 -0.127884,-0.51166 -0.191864,-0.76745 -0.06393,-0.19189 -0.03195,-0.38375 0.09593,-0.57559 -0.191838,-0.76748 -0.09591,-1.69482 0.287795,-2.78202 0.38375,-1.08724 0.767476,-1.9826 1.151178,-2.68608 0.191887,-0.70352 0.415727,-1.43899 0.671521,-2.20643 0.25584,-0.70351 0.671543,-1.21514 1.24711,-1.5349 0.703519,-1.2791 1.502948,-2.43028 2.398289,-3.45354 0.89538,-0.95932 1.854694,-1.88666 2.877947,-2.78201 1.215148,-1.15119 2.302371,-2.23841 3.261673,-3.26167 0.959327,-0.95932 2.110505,-1.72678 3.453535,-2.30236 0.831416,-0.7035 1.726776,-1.34305 2.686084,-1.91863 0.895367,-0.51164 1.75875,-1.1192 2.590152,-1.8227 0.127913,-0.89536 0.38373,-1.72677 0.767452,-2.49422 0.38373,-0.76745 0.703501,-1.50293 0.959316,-2.20643 0.511637,-1.34303 1.119203,-2.81398 1.822699,-4.41285 0.447681,-0.8314 0.79943,-1.50292 1.055247,-2.01456 0.255817,-0.51163 0.543612,-1.02326 0.863384,-1.53491 0.127908,-0.70348 0.415702,-1.375 0.863384,-2.01456 0.511633,-0.63953 0.927336,-1.31105 1.24711,-2.01456 0.575585,-1.27907 1.055245,-2.59013 1.438975,-3.9332 0.38372,-1.34302 0.89535,-2.68606 1.5349,-4.02912 0.064,-0.3837 0.19186,-0.73545 0.38373,-1.05525 0.25581,-0.31974 0.44767,-0.73545 0.57559,-1.24711 0.1279,-0.25579 0.19186,-0.47963 0.19186,-0.67152 0,-0.25579 0.064,-0.51161 0.19187,-0.76745 0.44767,-0.63952 0.73546,-1.11917 0.86338,-1.43897 0.19185,-0.31975 0.41569,-0.54359 0.67152,-0.67153 0.31976,0.12794 0.60756,0.25585 0.86338,0.38373 0.25581,0.064 0.54361,0.12794 0.86339,0.19186 0.1279,0.57562 0.51162,0.92737 1.15118,1.05525 0.70348,0.12794 1.375,0.22387 2.01456,0.2878 0.31976,0.25584 0.60755,0.47968 0.86338,0.67152 0.31976,0.12793 0.57558,0.35177 0.76746,0.67152 0.0639,0.38375 0.032,0.79945 -0.0959,1.24711 -0.064,0.38375 -0.1599,0.70352 -0.2878,0.95931 -0.12792,0.38375 -0.31978,0.7355 -0.57559,1.05525 -0.25583,0.25584 -0.51165,0.54364 -0.76745,0.86338 -0.19188,0.3198 -0.38374,0.70352 -0.57559,1.15118 -0.19188,0.38375 -0.38374,0.7355 -0.57559,1.05525 -0.31978,0.63956 -0.63955,1.27911 -0.95931,1.91863 -0.25583,0.63956 -0.51165,1.31108 -0.76746,2.01456 -0.12792,0.25584 -0.25582,0.51165 -0.38372,0.76746 -0.064,0.19187 -0.1599,0.41571 -0.2878,0.67152 -0.12792,0.25583 -0.22385,0.51165 -0.28779,0.76745 -10e-6,0.19188 -0.064,0.41572 -0.19186,0.67152 -0.25583,0.63956 -0.47967,1.15119 -0.67153,1.5349 -0.12791,0.31979 -0.35175,0.79945 -0.67152,1.43898 -0.25582,0.51164 -0.44769,1.02328 -0.57559,1.5349 -0.064,0.44769 -0.19187,0.89537 -0.38372,1.34304 -0.19187,0.31978 -0.38374,0.63956 -0.57559,0.95932 -0.19187,0.25582 -0.31978,0.63955 -0.38373,1.15118 m -15.828704,14.10194 c -0.447671,0.25581 -0.831397,0.5436 -1.151179,0.86338 -0.383715,0.31976 -0.799418,0.60756 -1.24711,0.86338 -0.639532,1.02326 -1.406983,1.9506 -2.302357,2.78202 -0.895347,0.83139 -1.694776,1.72675 -2.398289,2.68608 -0.127893,0.19185 -0.255801,0.38371 -0.383726,0.57559 -0.191847,0.19185 -0.351732,0.35174 -0.479658,0.47966 -0.191846,0.44766 -0.287777,0.89534 -0.287795,1.34304 -0.06394,0.51162 -0.159868,0.9593 -0.287795,1.34304 -0.06394,0.31976 -0.191845,0.60755 -0.383726,0.86339 -0.191845,0.2558 -0.383707,0.54359 -0.575589,0.86338 -0.511616,1.15116 -0.767433,2.36629 -0.767452,3.6454 -0.06394,1.27906 -0.255798,2.59013 -0.57559,3.93319 -0.191843,0.70347 -0.191843,1.15118 0,1.34308 0.127929,0.2558 0.287815,0.3837 0.479658,0.3837 0.127928,0 0.351768,-0.1599 0.671521,-0.4797 0.255836,-0.2558 0.447699,-0.44768 0.575589,-0.57555 0.255836,-0.1919 0.479676,-0.41574 0.671521,-0.67153 0.191881,-0.19189 0.351766,-0.35177 0.479658,-0.47965 0.575606,-0.76748 1.151194,-1.50296 1.726768,-2.20643 0.575604,-0.70352 1.087238,-1.40702 1.534905,-2.11049 0.191876,-0.12794 0.383739,-0.35178 0.575589,-0.67152 0.127922,-0.25584 0.25583,-0.57562 0.383726,-0.95932 0.127922,-0.31979 0.25583,-0.63956 0.383726,-0.95931 0.127921,-0.3198 0.25583,-0.57561 0.383727,-0.76746 0.255829,-0.31979 0.511646,-0.79945 0.767452,-1.43897 0.191874,-0.63956 0.35176,-1.11922 0.479658,-1.43897 0.639554,-1.27911 1.215142,-2.39831 1.726768,-3.35761 0.511643,-0.95933 0.991301,-2.1105 1.438973,-3.45353 0.191871,-0.51165 0.415711,-1.08724 0.671521,-1.72677 0.19187,-0.63955 0.319778,-1.2791 0.383726,-1.91863 0.127915,-0.12792 0.255824,-0.35176 0.383726,-0.67152 0.06396,-0.25583 0.159892,-0.54362 0.287795,-0.86339 -0.639537,0.51163 -1.215126,0.95931 -1.726768,1.34304 -0.575581,0.38372 -1.055238,0.86338 -1.438973,1.43898" />
    <g
       id="g3912"
       transform="translate(13.705364,2.2170841)">
      <path
         style="font-size:98.23390961px;font-style:normal;font-variant:normal;font-weight:normal;font-stretch:normal;text-align:start;line-height:125%;letter-spacing:0px;word-spacing:0px;writing-mode:lr-tb;text-anchor:start;fill:#000000;fill-opacity:1;stroke:none;font-family:Seaweed Script;-inkscape-font-specification:Seaweed Script"
         inkscape:connector-curvature="0"
         d="m 404.01207,935.29235 c 0.31976,-0.38369 0.51163,-0.63951 0.57559,-0.76746 0.0639,-0.19182 0.1279,-0.41566 0.19187,-0.67152 0.51162,-0.25577 0.99127,-0.44763 1.43897,-0.57559 0.51162,-0.12786 0.99128,-0.3517 1.43897,-0.67152 0.9593,-0.6395 1.63082,-1.0552 2.01457,-1.24711 0.44766,-0.25577 0.86336,-0.44763 1.24711,-0.57559 0.44766,0.25587 0.7994,0.44773 1.05524,0.57559 0.2558,0.12796 0.51162,0.25586 0.76745,0.38373 0.12789,0.38377 0.28778,0.7675 0.47966,1.15118 0.2558,0.38377 0.22382,0.86342 -0.0959,1.43897 -0.70352,0.44772 -1.08724,0.83145 -1.15118,1.15118 -2e-5,0.31981 0.032,0.57563 0.0959,0.76745 -0.19188,0.31981 -0.38374,0.63958 -0.57559,0.95932 -0.19188,0.31981 -0.38374,0.63958 -0.57558,0.95931 -0.63957,0.31981 -1.05527,0.67156 -1.24711,1.05525 -0.19189,0.38376 -0.4477,0.73551 -0.76746,1.05525 -0.4477,0.12794 -0.83142,0.22387 -1.15118,0.28779 -0.31978,0.064 -0.73549,0.12795 -1.2471,0.19186 -1.1512,-0.19182 -1.95063,-0.79939 -2.39829,-1.8227 -0.25583,-0.83136 -0.28781,-2.0465 -0.0959,-3.64539 m -6.71521,35.39874 c 0.44767,-0.19186 0.92733,-0.38372 1.43897,-0.57559 0.51163,-0.25581 0.99129,-0.51163 1.43897,-0.76745 1.02326,-0.51163 1.79072,-0.95931 2.30236,-1.34304 0.57558,-0.38372 1.11919,-0.76745 1.63084,-1.15118 0.51162,-0.38372 1.02325,-0.76745 1.5349,-1.15118 0.57558,-0.38372 1.2471,-0.76744 2.01457,-1.15118 0.19184,-0.25581 0.41568,-0.44767 0.67151,-0.57559 0.31976,-0.19185 0.60755,-0.44767 0.86339,-0.76745 0.63952,-0.51162 1.0872,-0.89535 1.34304,-1.15118 0.31975,-0.2558 0.57557,-0.47964 0.76745,-0.67152 0.2558,-0.19185 0.54359,-0.41569 0.86339,-0.67152 0.31975,-0.2558 0.83138,-0.60755 1.5349,-1.05525 0.89534,-1.02325 1.91861,-1.91861 3.06981,-2.68608 1.15115,-0.83139 2.17442,-1.72675 3.06981,-2.68609 0.57556,-0.12788 0.95928,0.096 1.15118,0.67152 0.25579,0.51166 0.28776,0.95934 0.0959,1.34305 -0.12794,0.31979 -0.35178,0.57561 -0.67152,0.76745 -0.25585,0.12793 -0.51167,0.35177 -0.76745,0.67152 0.31974,0.89538 0.22381,1.5669 -0.2878,2.01456 -0.44771,0.4477 -0.92736,0.89538 -1.43897,1.34304 -0.38375,0.51165 -0.7355,0.83143 -1.05525,0.95932 -0.76748,1.08724 -1.69481,1.9826 -2.78201,2.68608 -1.0233,0.63956 -2.07854,1.34305 -3.16574,2.1105 -0.70352,0.51164 -1.18318,0.89537 -1.43898,1.15118 -0.25583,0.19187 -0.47967,0.35175 -0.67152,0.47965 -0.12793,0.064 -0.35177,0.19187 -0.67152,0.38373 -0.31979,0.12792 -0.92735,0.41571 -1.8227,0.86338 -0.95933,0.70351 -1.95062,1.37503 -2.97387,2.01457 -0.95933,0.57559 -1.9826,1.08722 -3.06981,1.5349 -0.83142,0.51164 -1.66283,1.05525 -2.49422,1.63084 -0.76746,0.57559 -1.56689,1.21513 -2.39829,1.91863 -0.19187,0.19186 -0.44769,0.38372 -0.76746,0.57559 -0.25582,0.25581 -0.44768,0.47965 -0.57558,0.67152 -0.44769,0.63954 -0.76746,1.31106 -0.95932,2.01456 -0.19187,0.76745 -0.51164,1.47095 -0.95932,2.1105 -0.25581,0.89535 -0.51163,1.72676 -0.76745,2.49422 -0.25582,0.76744 -0.51163,1.59885 -0.76745,2.49422 -0.12791,0.70348 -0.25582,1.375 -0.38373,2.01456 -0.1279,0.63953 -0.31977,1.31105 -0.57559,2.01456 -0.31977,0.51162 -0.51163,0.83139 -0.57559,0.95932 -0.064,0.19184 -0.15988,0.44766 -0.28779,0.76745 -0.51163,0.83139 -0.76745,1.375 -0.76745,1.63084 -0.064,0.31975 -0.15989,0.63952 -0.2878,0.95931 -0.1279,0.44766 -0.28779,0.86337 -0.47965,1.24711 -0.19186,0.44766 -0.35175,0.92732 -0.47966,1.43897 -0.12791,0.44766 -0.22384,0.83139 -0.2878,1.15118 -0.1279,0.38371 -0.38372,0.63948 -0.76745,0.76748 -0.1279,0.3197 -0.25581,0.6075 -0.38373,0.8634 -0.1279,0.3197 -0.28778,0.6395 -0.47965,0.9593 -0.31977,0.3197 -0.63954,0.6395 -0.95932,0.9593 -0.38372,0.3837 -0.60756,0.7674 -0.67152,1.1512 -0.19186,0.8313 -0.57558,1.4389 -1.15118,1.8227 -0.57558,0.4477 -0.92733,0.9913 -1.05525,1.6308 -1.02325,1.0872 -2.01455,2.2064 -2.97387,3.3576 -0.95931,1.1512 -2.07851,2.1745 -3.35761,3.0699 -0.19184,0.4476 -0.44766,0.7994 -0.76745,1.0552 -0.38371,0.2558 -0.6715,0.6395 -0.86338,1.1512 -0.31976,0.1918 -0.57558,0.2877 -0.76746,0.2878 -0.2558,0.064 -0.54359,0.1278 -0.86338,0.1918 -1.15116,0.1919 -1.88663,0.064 -2.20643,-0.3837 -0.3837,-0.3837 -0.7994,-0.7355 -1.24711,-1.0552 -0.51161,-1.535 -0.95929,-3.1978 -1.34304,-4.9885 -0.3837,-1.7268 -0.60754,-3.4855 -0.67152,-5.2763 -0.12788,-0.3198 -0.15986,-0.6395 -0.0959,-0.9593 0.064,-0.3198 0.064,-0.6715 0,-1.0552 -0.0639,-0.2559 -0.12788,-0.5117 -0.19186,-0.7675 -0.0639,-0.1919 -0.032,-0.3837 0.0959,-0.5756 -0.19184,-0.7674 -0.0959,-1.69477 0.28779,-2.78197 0.38375,-1.08724 0.76748,-1.9826 1.15118,-2.68608 0.19189,-0.70352 0.41573,-1.43899 0.67152,-2.20643 0.25584,-0.70351 0.67154,-1.21514 1.24711,-1.5349 0.70352,-1.2791 1.50295,-2.43028 2.39829,-3.45354 0.89538,-0.95932 1.85469,-1.88666 2.87795,-2.78201 1.21514,-1.15119 2.30237,-2.23841 3.26167,-3.26167 0.95933,-0.95932 2.1105,-1.72678 3.45353,-2.30236 0.83142,-0.7035 1.72678,-1.34305 2.68609,-1.91863 0.89537,-0.51164 1.75875,-1.1192 2.59015,-1.8227 0.12791,-0.89536 0.38373,-1.72677 0.76745,-2.49422 0.38373,-0.76745 0.7035,-1.50293 0.95932,-2.20643 0.51164,-1.34303 1.1192,-2.81398 1.8227,-4.41285 0.44768,-0.8314 0.79943,-1.50292 1.05524,-2.01456 0.25582,-0.51163 0.54362,-1.02326 0.86339,-1.53491 0.12791,-0.70348 0.4157,-1.375 0.86338,-2.01456 0.51164,-0.63953 0.92734,-1.31105 1.24711,-2.01456 0.57559,-1.27907 1.05525,-2.59013 1.43898,-3.9332 0.38372,-1.34302 0.89535,-2.68606 1.5349,-4.02912 0.064,-0.3837 0.19186,-0.73545 0.38373,-1.05525 0.25581,-0.31974 0.44767,-0.73545 0.57559,-1.24711 0.1279,-0.25579 0.19185,-0.47963 0.19186,-0.67152 -1e-5,-0.25579 0.064,-0.51161 0.19186,-0.76745 0.44768,-0.63952 0.73547,-1.11917 0.86339,-1.43897 0.19185,-0.31975 0.41569,-0.54359 0.67152,-0.67153 0.31976,0.12794 0.60755,0.25585 0.86338,0.38373 0.25581,0.064 0.5436,0.12794 0.86339,0.19186 0.12789,0.57562 0.51162,0.92737 1.15117,1.05525 0.70349,0.12794 1.37501,0.22387 2.01457,0.2878 0.31975,0.25584 0.60755,0.47968 0.86338,0.67152 0.31976,0.12793 0.57557,0.35177 0.76745,0.67152 0.0639,0.38375 0.032,0.79945 -0.0959,1.24711 -0.064,0.38375 -0.1599,0.70352 -0.28779,0.95931 -0.12792,0.38375 -0.31979,0.7355 -0.57559,1.05525 -0.25583,0.25584 -0.51165,0.54364 -0.76745,0.86338 -0.19188,0.3198 -0.38374,0.70352 -0.57559,1.15118 -0.19188,0.38375 -0.38374,0.7355 -0.57559,1.05525 -0.31979,0.63956 -0.63956,1.27911 -0.95932,1.91863 -0.25583,0.63956 -0.51164,1.31108 -0.76745,2.01456 -0.12792,0.25584 -0.25583,0.51165 -0.38373,0.76746 -0.064,0.19187 -0.15989,0.41571 -0.28779,0.67152 -0.12792,0.25583 -0.22385,0.51165 -0.28779,0.76745 -1e-5,0.19188 -0.064,0.41572 -0.19187,0.67152 -0.25583,0.63956 -0.47967,1.15119 -0.67152,1.5349 -0.12792,0.31979 -0.35176,0.79945 -0.67152,1.43898 -0.25583,0.51164 -0.44769,1.02328 -0.57559,1.5349 -0.064,0.44769 -0.19187,0.89537 -0.38373,1.34304 -0.19187,0.31978 -0.38373,0.63956 -0.57558,0.95932 -0.19187,0.25582 -0.31978,0.63955 -0.38373,1.15118 m -15.82871,14.10194 c -0.44767,0.25581 -0.83139,0.5436 -1.15118,0.86338 -0.38371,0.31976 -0.79941,0.60756 -1.24711,0.86338 -0.63953,1.02326 -1.40698,1.9506 -2.30235,2.78202 -0.89535,0.83139 -1.69478,1.72675 -2.39829,2.68608 -0.12789,0.19185 -0.2558,0.38371 -0.38373,0.57559 -0.19184,0.19185 -0.35173,0.35174 -0.47966,0.47966 -0.19184,0.44766 -0.28777,0.89534 -0.28779,1.34304 -0.0639,0.51162 -0.15987,0.9593 -0.2878,1.34304 -0.0639,0.31976 -0.19184,0.60755 -0.38372,0.86339 -0.19185,0.2558 -0.38371,0.54359 -0.57559,0.86338 -0.51162,1.15116 -0.76743,2.36629 -0.76745,3.64541 -0.0639,1.279 -0.2558,2.5901 -0.57559,3.9332 -0.19185,0.7034 -0.19185,1.1512 0,1.3431 0.12793,0.2558 0.28781,0.3837 0.47966,0.3837 0.12792,0 0.35176,-0.1599 0.67152,-0.4797 0.25583,-0.2558 0.4477,-0.4477 0.57559,-0.5756 0.25583,-0.1919 0.47967,-0.4157 0.67152,-0.6715 0.19188,-0.1919 0.35176,-0.3518 0.47965,-0.4797 0.57561,-0.7675 1.1512,-1.5029 1.72677,-2.2064 0.57561,-0.7035 1.08724,-1.407 1.53491,-2.1105 0.19187,-0.1279 0.38374,-0.35177 0.57559,-0.67151 0.12792,-0.25584 0.25583,-0.57562 0.38372,-0.95932 0.12792,-0.31979 0.25583,-0.63956 0.38373,-0.95931 0.12792,-0.3198 0.25583,-0.57561 0.38373,-0.76746 0.25582,-0.31979 0.51164,-0.79945 0.76745,-1.43897 0.19187,-0.63956 0.35176,-1.11922 0.47966,-1.43897 0.63955,-1.27911 1.21514,-2.39831 1.72676,-3.35761 0.51165,-0.95933 0.9913,-2.1105 1.43898,-3.45353 0.19187,-0.51165 0.41571,-1.08724 0.67152,-1.72677 0.19187,-0.63955 0.31978,-1.2791 0.38372,-1.91863 0.12792,-0.12792 0.25583,-0.35176 0.38373,-0.67152 0.064,-0.25583 0.15989,-0.54362 0.28779,-0.86339 -0.63953,0.51163 -1.21512,0.95931 -1.72676,1.34304 -0.57558,0.38372 -1.05524,0.86338 -1.43898,1.43898"
         id="path3768" />
      <path
         sodipodi:type="arc"
         style="fill:none;stroke:#000000;stroke-width:1.39590192;stroke-miterlimit:4;stroke-dasharray:none"
         id="path3770"
         sodipodi:cx="186.05042"
         sodipodi:cy="31.159664"
         sodipodi:rx="59.899158"
         sodipodi:ry="59.899158"
         d="m 245.94957,31.159664 c 0,33.081392 -26.81776,59.899159 -59.89915,59.899159 -33.0814,0 -59.89916,-26.817767 -59.89916,-59.899159 0,-33.0813916 26.81776,-59.899158 59.89916,-59.899158 33.08139,0 59.89915,26.8177664 59.89915,59.899158 z"
         transform="matrix(0.71638273,0,0,0.71638273,263.75633,937.82042)" />
      <path
         transform="matrix(0.9585357,0,0,0.9585357,63.540251,942.47786)"
         d="m 407.50222,18.428949 c 0,32.903108 -26.67324,59.576348 -59.57635,59.576348 -32.90311,0 -59.57634,-26.67324 -59.57634,-59.576348 0,-32.903108 26.67323,-59.576347 59.57634,-59.576347 32.90311,0 59.57635,26.673239 59.57635,59.576347 z"
         sodipodi:ry="59.576347"
         sodipodi:rx="59.576347"
         sodipodi:cy="18.428949"
         sodipodi:cx="347.92587"
         id="path3774"
         style="fill:none;stroke:#000000;stroke-width:1.04325795;stroke-linecap:butt;stroke-linejoin:miter;stroke-miterlimit:4;stroke-opacity:1;stroke-dasharray:none;stroke-dashoffset:0"
         sodipodi:type="arc" />
      <path
         inkscape:connector-curvature="0"
         id="path3776"
         d="m 372.09213,913.82533 c -25.58034,13.77815 -35.14793,45.68449 -21.36981,71.26484 13.77812,25.58033 45.68441,35.14783 71.26477,21.36973 25.58038,-13.77812 35.14803,-45.68436 21.36989,-71.26473 -13.77813,-25.58036 -45.68448,-35.14795 -71.26485,-21.36984 z"
         style="fill:none;stroke:#000000;stroke-width:0.06971193;stroke-linecap:butt;stroke-linejoin:miter;stroke-miterlimit:4;stroke-opacity:1;stroke-dasharray:none;stroke-dashoffset:0" />
      <text
         sodipodi:linespacing="125%"
         id="text3778"
         style="font-size:10px;font-style:normal;font-variant:normal;font-weight:300;font-stretch:normal;text-align:center;line-height:125%;letter-spacing:0px;word-spacing:0px;writing-mode:lr-tb;text-anchor:middle;fill:#000000;fill-opacity:1;stroke:none;font-family:Josefin Slab;-inkscape-font-specification:Josefin Slab Light"
         xml:space="preserve"><textPath
           id="textPath3790"
           startOffset="50%"
           xlink:href="#path3776">estd. 2015</textPath></text>
      <text
         sodipodi:linespacing="125%"
         id="text3797"
         style="font-size:10px;font-style:normal;font-variant:normal;font-weight:300;font-stretch:normal;text-align:center;line-height:125%;letter-spacing:0px;word-spacing:0px;writing-mode:lr-tb;text-anchor:middle;fill:#000000;fill-opacity:1;stroke:none;font-family:Josefin Slab;-inkscape-font-specification:Josefin Slab Light"
         xml:space="preserve"><textPath
           id="textPath3805"
           startOffset="50%"
           xlink:href="#path3803"><tspan
   id="tspan3801">some really really really really long motto here</tspan></textPath></text>
      <path
         sodipodi:type="arc"
         style="fill:none;stroke:#000000;stroke-width:0.0934802;stroke-linecap:butt;stroke-linejoin:miter;stroke-miterlimit:4;stroke-opacity:1;stroke-dasharray:none;stroke-dashoffset:0"
         id="path3803"
         sodipodi:cx="347.92587"
         sodipodi:cy="18.428949"
         sodipodi:rx="59.576347"
         sodipodi:ry="59.576347"
         d="m 407.50222,18.428949 c 0,32.903108 -26.67324,59.576348 -59.57635,59.576348 -32.90311,0 -59.57634,-26.67324 -59.57634,-59.576348 0,-32.903108 26.67323,-59.576347 59.57634,-59.576347 32.90311,0 59.57635,26.673239 59.57635,59.576347 z"
         transform="matrix(0.24201258,0.76044503,-0.76044503,0.24201258,326.8514,691.10413)" />
    </g>
    <g
       id="g3924"
       transform="translate(10.075085,-3.7250749)">
      <path
         id="path2992"
         d="m 251.99526,935.29235 c 0.31976,-0.38369 0.51163,-0.63951 0.57559,-0.76746 0.0639,-0.19182 0.1279,-0.41566 0.19187,-0.67152 0.51162,-0.25577 0.99127,-0.44763 1.43897,-0.57559 0.51162,-0.12786 0.99128,-0.3517 1.43897,-0.67152 0.9593,-0.6395 1.63082,-1.0552 2.01457,-1.24711 0.44766,-0.25577 0.86336,-0.44763 1.24711,-0.57559 0.44766,0.25587 0.7994,0.44773 1.05524,0.57559 0.2558,0.12796 0.51162,0.25586 0.76745,0.38373 0.12789,0.38377 0.28778,0.7675 0.47966,1.15118 0.2558,0.38377 0.22382,0.86342 -0.0959,1.43897 -0.70352,0.44772 -1.08724,0.83145 -1.15118,1.15118 -2e-5,0.31981 0.032,0.57563 0.0959,0.76745 -0.19188,0.31981 -0.38374,0.63958 -0.57559,0.95932 -0.19188,0.31981 -0.38374,0.63958 -0.57558,0.95931 -0.63957,0.31981 -1.05527,0.67156 -1.24711,1.05525 -0.19189,0.38376 -0.4477,0.73551 -0.76746,1.05525 -0.4477,0.12794 -0.83142,0.22387 -1.15118,0.28779 -0.31978,0.064 -0.73549,0.12795 -1.2471,0.19186 -1.1512,-0.19182 -1.95063,-0.79939 -2.39829,-1.8227 -0.25583,-0.83136 -0.28781,-2.0465 -0.0959,-3.64539 m -6.71521,35.39874 c 0.44767,-0.19186 0.92733,-0.38372 1.43897,-0.57559 0.51163,-0.25581 0.99129,-0.51163 1.43897,-0.76745 1.02326,-0.51163 1.79072,-0.95931 2.30236,-1.34304 0.57558,-0.38372 1.11919,-0.76745 1.63084,-1.15118 0.51162,-0.38372 1.02325,-0.76745 1.5349,-1.15118 0.57558,-0.38372 1.2471,-0.76744 2.01457,-1.15118 0.19184,-0.25581 0.41568,-0.44767 0.67151,-0.57559 0.31976,-0.19185 0.60755,-0.44767 0.86339,-0.76745 0.63952,-0.51162 1.0872,-0.89535 1.34304,-1.15118 0.31975,-0.2558 0.57557,-0.47964 0.76745,-0.67152 0.2558,-0.19185 0.54359,-0.41569 0.86339,-0.67152 0.31975,-0.2558 0.83138,-0.60755 1.5349,-1.05525 0.89534,-1.02325 1.91861,-1.91861 3.06981,-2.68608 1.15115,-0.83139 2.17442,-1.72675 3.06981,-2.68609 0.57556,-0.12788 0.95928,0.096 1.15118,0.67152 0.25579,0.51166 0.28776,0.95934 0.0959,1.34305 -0.12794,0.31979 -0.35178,0.57561 -0.67152,0.76745 -0.25585,0.12793 -0.51167,0.35177 -0.76745,0.67152 0.31974,0.89538 0.22381,1.5669 -0.2878,2.01456 -0.44771,0.4477 -0.92736,0.89538 -1.43897,1.34304 -0.38375,0.51165 -0.7355,0.83143 -1.05525,0.95932 -0.76748,1.08724 -1.69481,1.9826 -2.78201,2.68608 -1.0233,0.63956 -2.07854,1.34305 -3.16574,2.1105 -0.70352,0.51164 -1.18318,0.89537 -1.43898,1.15118 -0.25583,0.19187 -0.47967,0.35175 -0.67152,0.47965 -0.12793,0.064 -0.35177,0.19187 -0.67152,0.38373 -0.31979,0.12792 -0.92735,0.41571 -1.8227,0.86338 -0.95933,0.70351 -1.95062,1.37503 -2.97387,2.01457 -0.95933,0.57559 -1.9826,1.08722 -3.06981,1.5349 -0.83142,0.51164 -1.66283,1.05525 -2.49422,1.63084 -0.76746,0.57559 -1.56689,1.21513 -2.39829,1.91863 -0.19187,0.19186 -0.44769,0.38372 -0.76746,0.57559 -0.25582,0.25581 -0.44768,0.47965 -0.57558,0.67152 -0.44769,0.63954 -0.76746,1.31106 -0.95932,2.01456 -0.19187,0.76745 -0.51164,1.47095 -0.95932,2.1105 -0.25581,0.89535 -0.51163,1.72676 -0.76745,2.49422 -0.25582,0.76744 -0.51163,1.59885 -0.76745,2.49422 -0.12791,0.70348 -0.25582,1.375 -0.38373,2.01456 -0.1279,0.63953 -0.31977,1.31105 -0.57559,2.01456 -0.31977,0.51162 -0.51163,0.83139 -0.57559,0.95932 -0.064,0.19184 -0.15988,0.44766 -0.28779,0.76745 -0.51163,0.83139 -0.76745,1.375 -0.76745,1.63084 -0.064,0.31975 -0.15989,0.63952 -0.2878,0.95931 -0.1279,0.44766 -0.28779,0.86337 -0.47965,1.24711 -0.19186,0.44766 -0.35175,0.92732 -0.47966,1.43897 -0.12791,0.44766 -0.22384,0.83139 -0.2878,1.15118 -0.1279,0.38371 -0.38372,0.63948 -0.76745,0.76748 -0.1279,0.3197 -0.25581,0.6075 -0.38373,0.8634 -0.1279,0.3197 -0.28778,0.6395 -0.47965,0.9593 -0.31977,0.3197 -0.63954,0.6395 -0.95932,0.9593 -0.38372,0.3837 -0.60756,0.7674 -0.67152,1.1512 -0.19186,0.8313 -0.57558,1.4389 -1.15118,1.8227 -0.57558,0.4477 -0.92733,0.9913 -1.05525,1.6308 -1.02325,1.0872 -2.01455,2.2064 -2.97387,3.3576 -0.95931,1.1512 -2.07851,2.1745 -3.35761,3.0699 -0.19184,0.4476 -0.44766,0.7994 -0.76745,1.0552 -0.38371,0.2558 -0.6715,0.6395 -0.86338,1.1512 -0.31976,0.1918 -0.57558,0.2877 -0.76746,0.2878 -0.2558,0.064 -0.54359,0.1278 -0.86338,0.1918 -1.15116,0.1919 -1.88663,0.064 -2.20643,-0.3837 -0.3837,-0.3837 -0.7994,-0.7355 -1.24711,-1.0552 -0.51161,-1.535 -0.95929,-3.1978 -1.34304,-4.9885 -0.3837,-1.7268 -0.60754,-3.4855 -0.67152,-5.2763 -0.12788,-0.3198 -0.15986,-0.6395 -0.0959,-0.9593 0.064,-0.3198 0.064,-0.6715 0,-1.0552 -0.0639,-0.2559 -0.12788,-0.5117 -0.19186,-0.7675 -0.0639,-0.1919 -0.032,-0.3837 0.0959,-0.5756 -0.19184,-0.7674 -0.0959,-1.69477 0.28779,-2.78197 0.38375,-1.08724 0.76748,-1.9826 1.15118,-2.68608 0.19189,-0.70352 0.41573,-1.43899 0.67152,-2.20643 0.25584,-0.70351 0.67154,-1.21514 1.24711,-1.5349 0.70352,-1.2791 1.50295,-2.43028 2.39829,-3.45354 0.89538,-0.95932 1.85469,-1.88666 2.87795,-2.78201 1.21514,-1.15119 2.30237,-2.23841 3.26167,-3.26167 0.95933,-0.95932 2.1105,-1.72678 3.45353,-2.30236 0.83142,-0.7035 1.72678,-1.34305 2.68609,-1.91863 0.89537,-0.51164 1.75875,-1.1192 2.59015,-1.8227 0.12791,-0.89536 0.38373,-1.72677 0.76745,-2.49422 0.38373,-0.76745 0.7035,-1.50293 0.95932,-2.20643 0.51164,-1.34303 1.1192,-2.81398 1.8227,-4.41285 0.44768,-0.8314 0.79943,-1.50292 1.05524,-2.01456 0.25582,-0.51163 0.54362,-1.02326 0.86339,-1.53491 0.12791,-0.70348 0.4157,-1.375 0.86338,-2.01456 0.51164,-0.63953 0.92734,-1.31105 1.24711,-2.01456 0.57559,-1.27907 1.05525,-2.59013 1.43898,-3.9332 0.38372,-1.34302 0.89535,-2.68606 1.5349,-4.02912 0.064,-0.3837 0.19186,-0.73545 0.38373,-1.05525 0.25581,-0.31974 0.44767,-0.73545 0.57559,-1.24711 0.1279,-0.25579 0.19185,-0.47963 0.19186,-0.67152 -10e-6,-0.25579 0.064,-0.51161 0.19186,-0.76745 0.44768,-0.63952 0.73547,-1.11917 0.86339,-1.43897 0.19185,-0.31975 0.41569,-0.54359 0.67152,-0.67153 0.31976,0.12794 0.60755,0.25585 0.86338,0.38373 0.25581,0.064 0.5436,0.12794 0.86339,0.19186 0.12789,0.57562 0.51162,0.92737 1.15117,1.05525 0.70349,0.12794 1.37501,0.22387 2.01457,0.2878 0.31975,0.25584 0.60755,0.47968 0.86338,0.67152 0.31976,0.12793 0.57557,0.35177 0.76745,0.67152 0.0639,0.38375 0.032,0.79945 -0.0959,1.24711 -0.064,0.38375 -0.1599,0.70352 -0.28779,0.95931 -0.12792,0.38375 -0.31979,0.7355 -0.57559,1.05525 -0.25583,0.25584 -0.51165,0.54364 -0.76745,0.86338 -0.19188,0.3198 -0.38374,0.70352 -0.57559,1.15118 -0.19188,0.38375 -0.38374,0.7355 -0.57559,1.05525 -0.31979,0.63956 -0.63956,1.27911 -0.95932,1.91863 -0.25583,0.63956 -0.51164,1.31108 -0.76745,2.01456 -0.12792,0.25584 -0.25583,0.51165 -0.38373,0.76746 -0.064,0.19187 -0.15989,0.41571 -0.28779,0.67152 -0.12792,0.25583 -0.22385,0.51165 -0.28779,0.76745 -1e-5,0.19188 -0.064,0.41572 -0.19187,0.67152 -0.25583,0.63956 -0.47967,1.15119 -0.67152,1.5349 -0.12792,0.31979 -0.35176,0.79945 -0.67152,1.43898 -0.25583,0.51164 -0.44769,1.02328 -0.57559,1.5349 -0.064,0.44769 -0.19187,0.89537 -0.38373,1.34304 -0.19187,0.31978 -0.38373,0.63956 -0.57558,0.95932 -0.19187,0.25582 -0.31978,0.63955 -0.38373,1.15118 m -15.82871,14.10194 c -0.44767,0.25581 -0.83139,0.5436 -1.15118,0.86338 -0.38371,0.31976 -0.79941,0.60756 -1.24711,0.86338 -0.63953,1.02326 -1.40698,1.9506 -2.30235,2.78202 -0.89535,0.83139 -1.69478,1.72675 -2.39829,2.68608 -0.12789,0.19185 -0.2558,0.38371 -0.38373,0.57559 -0.19184,0.19185 -0.35173,0.35174 -0.47966,0.47966 -0.19184,0.44766 -0.28777,0.89534 -0.28779,1.34304 -0.0639,0.51162 -0.15987,0.9593 -0.2878,1.34304 -0.0639,0.31976 -0.19184,0.60755 -0.38372,0.86339 -0.19185,0.2558 -0.38371,0.54359 -0.57559,0.86338 -0.51162,1.15116 -0.76743,2.36629 -0.76745,3.64541 -0.0639,1.279 -0.2558,2.5901 -0.57559,3.9332 -0.19185,0.7034 -0.19185,1.1512 0,1.3431 0.12793,0.2558 0.28781,0.3837 0.47966,0.3837 0.12792,0 0.35176,-0.1599 0.67152,-0.4797 0.25583,-0.2558 0.4477,-0.4477 0.57559,-0.5756 0.25583,-0.1919 0.47967,-0.4157 0.67152,-0.6715 0.19188,-0.1919 0.35176,-0.3518 0.47965,-0.4797 0.57561,-0.7675 1.1512,-1.5029 1.72677,-2.2064 0.57561,-0.7035 1.08724,-1.407 1.53491,-2.1105 0.19187,-0.1279 0.38374,-0.35177 0.57559,-0.67151 0.12792,-0.25584 0.25583,-0.57562 0.38372,-0.95932 0.12792,-0.31979 0.25583,-0.63956 0.38373,-0.95931 0.12792,-0.3198 0.25583,-0.57561 0.38373,-0.76746 0.25582,-0.31979 0.51164,-0.79945 0.76745,-1.43897 0.19187,-0.63956 0.35176,-1.11922 0.47966,-1.43897 0.63955,-1.27911 1.21514,-2.39831 1.72676,-3.35761 0.51165,-0.95933 0.9913,-2.1105 1.43898,-3.45353 0.19187,-0.51165 0.41571,-1.08724 0.67152,-1.72677 0.19187,-0.63955 0.31978,-1.2791 0.38372,-1.91863 0.12792,-0.12792 0.25583,-0.35176 0.38373,-0.67152 0.064,-0.25583 0.15989,-0.54362 0.28779,-0.86339 -0.63953,0.51163 -1.21512,0.95931 -1.72676,1.34304 -0.57558,0.38372 -1.05524,0.86338 -1.43898,1.43898"
         inkscape:connector-curvature="0"
         style="font-size:98.23390961px;font-style:normal;font-variant:normal;font-weight:normal;font-stretch:normal;text-align:start;line-height:125%;letter-spacing:0px;word-spacing:0px;writing-mode:lr-tb;text-anchor:start;fill:#000000;fill-opacity:1;stroke:none;font-family:Seaweed Script;-inkscape-font-specification:Seaweed Script" />
      <path
         transform="matrix(0.71638273,0,0,0.71638273,111.73952,937.82042)"
         d="m 245.94957,31.159664 c 0,33.081392 -26.81776,59.899159 -59.89915,59.899159 -33.0814,0 -59.89916,-26.817767 -59.89916,-59.899159 0,-33.0813916 26.81776,-59.899158 59.89916,-59.899158 33.08139,0 59.89915,26.8177664 59.89915,59.899158 z"
         sodipodi:ry="59.899158"
         sodipodi:rx="59.899158"
         sodipodi:cy="31.159664"
         sodipodi:cx="186.05042"
         id="path2998"
         style="fill:none;stroke:#000000;stroke-width:5;stroke-miterlimit:4;stroke-dasharray:none"
         sodipodi:type="arc" />
      <path
         style="fill:none;stroke:#000000;stroke-width:0.05177608;stroke-linecap:butt;stroke-linejoin:miter;stroke-miterlimit:4;stroke-opacity:1;stroke-dasharray:none;stroke-dashoffset:0"
         d="m 226.49394,925.74213 c -18.9989,10.23323 -26.10489,33.93054 -15.87167,52.92944 10.23321,18.99889 33.93048,26.10483 52.92939,15.87162 18.99893,-10.23322 26.10496,-33.93045 15.87173,-52.92937 -10.23322,-18.99891 -33.93053,-26.1049 -52.92945,-15.87169 z"
         id="path3860"
         inkscape:connector-curvature="0" />
      <text
         transform="matrix(0.74271476,0,0,0.74271476,-49.86438,247.03057)"
         xml:space="preserve"
         style="font-size:18.84976768px;font-style:normal;font-variant:normal;font-weight:300;font-stretch:normal;text-align:center;line-height:125%;letter-spacing:0px;word-spacing:0px;writing-mode:lr-tb;text-anchor:middle;fill:#000000;fill-opacity:1;stroke:none;font-family:Josefin Slab;-inkscape-font-specification:Josefin Slab Light"
         id="text3862"
         sodipodi:linespacing="125%"><textPath
           xlink:href="#path3776"
           startOffset="50%"
           id="textPath3864">2015</textPath></text>
    </g>
    <text
       xml:space="preserve"
       style="font-size:32px;font-style:normal;font-variant:normal;font-weight:500;font-stretch:normal;text-align:start;line-height:125%;letter-spacing:0px;word-spacing:0px;writing-mode:lr-tb;text-anchor:start;fill:#b3b3b3;fill-opacity:1;stroke:none;font-family:Champion;-inkscape-font-specification:Champion Medium"
       x="76.784859"
       y="1045.3197"
       id="text3886"
       sodipodi:linespacing="125%"><tspan
         sodipodi:role="line"
         id="tspan3888"
         x="76.784859"
         y="1045.3197">small</tspan></text>
    <text
       xml:space="preserve"
       style="font-size:32px;font-style:normal;font-variant:normal;font-weight:500;font-stretch:normal;text-align:start;line-height:125%;letter-spacing:0px;word-spacing:0px;writing-mode:lr-tb;text-anchor:start;fill:#b3b3b3;fill-opacity:1;stroke:none;font-family:Champion;-inkscape-font-specification:Champion Medium"
       x="221.18016"
       y="1045.3197"
       id="text3890"
       sodipodi:linespacing="125%"><tspan
         sodipodi:role="line"
         id="tspan3892"
         x="221.18016"
         y="1045.3197">medium</tspan></text>
    <text
       xml:space="preserve"
       style="font-size:32px;font-style:normal;font-variant:normal;font-weight:500;font-stretch:normal;text-align:start;line-height:125%;letter-spacing:0px;word-spacing:0px;writing-mode:lr-tb;text-anchor:start;fill:#b3b3b3;fill-opacity:1;stroke:none;font-family:Champion;-inkscape-font-specification:Champion Medium"
       x="388.84149"
       y="1045.3197"
       id="text3894"
       sodipodi:linespacing="125%"><tspan
         sodipodi:role="line"
         id="tspan3896"
         x="388.84149"
         y="1045.3197">large</tspan></text>
  </g>
</svg>
